<?xml version="1.0" encoding="utf-8"?>
<!-- Generator: Adobe Illustrator 23.0.1, SVG Export Plug-In . SVG Version: 6.00 Build 0)  -->
<svg version="1.2" baseProfile="tiny" id="g-example-static-img" xmlns="http://www.w3.org/2000/svg" xmlns:xlink="http://www.w3.org/1999/xlink"
	 x="0px" y="0px" viewBox="0 0 468 507.938" xml:space="preserve">
<g>
	<g>
		<text transform="matrix(1 0 0 1 52.5939 189.6385)" fill="#231F20" font-family="'Lato-Regular'" font-size="9px">0 </text>
		<text transform="matrix(1 0 0 1 36.7639 40.5839)" fill="#231F20" font-family="'Lato-Regular'" font-size="9px">6,000</text>
		<text transform="matrix(1 0 0 1 36.7639 90.2694)" fill="#231F20" font-family="'Lato-Regular'" font-size="9px">4,000</text>
		<text transform="matrix(1 0 0 1 36.7639 139.9535)" fill="#231F20" font-family="'Lato-Regular'" font-size="9px">2,000</text>
		<text transform="matrix(1 0 0 1 427.2961 189.6576)" fill="#231F20" font-family="'Lato-Regular'" font-size="9px">0% </text>
		<text transform="matrix(1 0 0 1 425.8537 40.5839)" fill="#231F20" font-family="'Lato-Regular'" font-size="9px">15%</text>
		<text transform="matrix(1 0 0 1 425.8537 90.2753)" fill="#231F20" font-family="'Lato-Regular'" font-size="9px">10%</text>
		<text transform="matrix(1 0 0 1 425.8537 139.9667)" fill="#231F20" font-family="'Lato-Regular'" font-size="9px">5%</text>
		<text transform="matrix(0 -1 1 0 20.7053 186.9281)" fill="#808184" font-family="'Lato-Regular'" font-size="9px">P</text>
		<text transform="matrix(0 -1 1 0 20.7053 181.6722)" fill="#808184" font-family="'Lato-Regular'" font-size="9px">e</text>
		<text transform="matrix(0 -1 1 0 20.7053 176.9564)" fill="#808184" font-family="'Lato-Regular'" font-size="9px">o</text>
		<text transform="matrix(0 -1 1 0 20.7053 171.9525)" fill="#808184" font-family="'Lato-Regular'" font-size="9px">p</text>
		<text transform="matrix(0 -1 1 0 20.7053 166.9843)" fill="#808184" font-family="'Lato-Regular'" font-size="9px">l</text>
		<text transform="matrix(0 -1 1 0 20.7053 164.6805)" fill="#808184" font-family="'Lato-Regular'" font-size="9px">e</text>
		<text transform="matrix(0 -1 1 0 20.7053 159.9647)" fill="#808184" font-family="'Lato-Regular'" font-size="9px"> </text>
		<text transform="matrix(0 -1 1 0 20.7053 158.2274)" fill="#808184" font-family="'Lato-Regular'" font-size="9px">w</text>
		<text transform="matrix(0 -1 1 0 20.7053 151.3339)" fill="#808184" font-family="'Lato-Regular'" font-size="9px">i</text>
		<text transform="matrix(0 -1 1 0 20.7053 149.0297)" fill="#808184" font-family="'Lato-Regular'" font-size="9px">t</text>
		<text transform="matrix(0 -1 1 0 20.7053 145.6727)" fill="#808184" font-family="'Lato-Regular'" font-size="9px">h</text>
		<text transform="matrix(0 -1 1 0 20.7053 140.6688)" fill="#808184" font-family="'Lato-Regular'" font-size="9px"> </text>
		<text transform="matrix(0 -1 1 0 20.7053 138.932)" fill="#808184" font-family="'Lato-Regular'" font-size="9px">r</text>
		<text transform="matrix(0 -1 1 0 20.7053 135.4667)" fill="#808184" font-family="'Lato-Regular'" font-size="9px">e</text>
		<text transform="matrix(0 -1 1 0 20.7053 130.7509)" fill="#808184" font-family="'Lato-Regular'" font-size="9px">d</text>
		<text transform="matrix(0 -1 1 0 20.7053 125.7201)" fill="#808184" font-family="'Lato-Regular'" font-size="9px">u</text>
		<text transform="matrix(0 -1 1 0 20.7053 120.7162)" fill="#808184" font-family="'Lato-Regular'" font-size="9px">c</text>
		<text transform="matrix(0 -1 1 0 20.7053 116.5853)" fill="#808184" font-family="'Lato-Regular'" font-size="9px">e</text>
		<text transform="matrix(0 -1 1 0 20.7053 111.8695)" fill="#808184" font-family="'Lato-Regular'" font-size="9px">d</text>
		<text transform="matrix(0 -1 1 0 20.7053 106.8383)" fill="#808184" font-family="'Lato-Regular'" font-size="9px"> </text>
		<text transform="matrix(0 -1 1 0 20.7053 105.1014)" fill="#808184" font-family="'Lato-Regular'" font-size="9px">l</text>
		<text transform="matrix(0 -1 1 0 20.7053 103.2025)" fill="#808184" font-family="'Lato-Regular'" font-size="9px">e</text>
		<text transform="matrix(0 -1 1 0 20.7053 98.8915)" fill="#808184" font-family="'Lato-Regular'" font-size="9px">n</text>
		<text transform="matrix(0 -1 1 0 20.7053 94.2924)" fill="#808184" font-family="'Lato-Regular'" font-size="9px">g</text>
		<text transform="matrix(0 -1 1 0 20.7053 90.0985)" fill="#808184" font-family="'Lato-Regular'" font-size="9px">t</text>
		<text transform="matrix(0 -1 1 0 20.7053 87.1469)" fill="#808184" font-family="'Lato-Regular'" font-size="9px">h</text>
		<text transform="matrix(0 -1 1 0 20.7053 82.5477)" fill="#808184" font-family="'Lato-Regular'" font-size="9px"> </text>
		<text transform="matrix(0 -1 1 0 20.7053 81.2157)" fill="#808184" font-family="'Lato-Regular'" font-size="9px">o</text>
		<text transform="matrix(0 -1 1 0 20.7053 76.6171)" fill="#808184" font-family="'Lato-Regular'" font-size="9px">f</text>
		<text transform="matrix(0 -1 1 0 20.7053 73.9891)" fill="#808184" font-family="'Lato-Regular'" font-size="9px"> </text>
		<text transform="matrix(0 -1 1 0 20.7053 72.6571)" fill="#808184" font-family="'Lato-Regular'" font-size="9px">s</text>
		<text transform="matrix(0 -1 1 0 20.7053 69.1561)" fill="#808184" font-family="'Lato-Regular'" font-size="9px">u</text>
		<text transform="matrix(0 -1 1 0 20.7053 64.557)" fill="#808184" font-family="'Lato-Regular'" font-size="9px">p</text>
		<text transform="matrix(0 -1 1 0 20.7053 59.994)" fill="#808184" font-family="'Lato-Regular'" font-size="9px">e</text>
		<text transform="matrix(0 -1 1 0 20.7053 55.6835)" fill="#808184" font-family="'Lato-Regular'" font-size="9px">r</text>
		<text transform="matrix(0 -1 1 0 20.7053 52.4613)" fill="#808184" font-family="'Lato-Regular'" font-size="9px">v</text>
		<text transform="matrix(0 -1 1 0 20.7053 48.2587)" fill="#808184" font-family="'Lato-Regular'" font-size="9px">i</text>
		<text transform="matrix(0 -1 1 0 20.7053 46.3593)" fill="#808184" font-family="'Lato-Regular'" font-size="9px">s</text>
		<text transform="matrix(0 -1 1 0 20.7053 42.8588)" fill="#808184" font-family="'Lato-Regular'" font-size="9px">i</text>
		<text transform="matrix(0 -1 1 0 20.7053 40.9594)" fill="#808184" font-family="'Lato-Regular'" font-size="9px">o</text>
		<text transform="matrix(0 -1 1 0 20.7053 36.3607)" fill="#808184" font-family="'Lato-Regular'" font-size="9px">n</text>
		<text transform="matrix(0 -1 1 0 460.3332 127.2333)" fill="#808184" font-family="'Lato-Regular'" font-size="9px">%</text>
		<text transform="matrix(0 -1 1 0 460.3332 120.1595)" fill="#808184" font-family="'Lato-Regular'" font-size="9px"> </text>
		<text transform="matrix(0 -1 1 0 460.3332 118.4222)" fill="#808184" font-family="'Lato-Regular'" font-size="9px">d</text>
		<text transform="matrix(0 -1 1 0 460.3332 113.3915)" fill="#808184" font-family="'Lato-Regular'" font-size="9px">r</text>
		<text transform="matrix(0 -1 1 0 460.3332 109.9174)" fill="#808184" font-family="'Lato-Regular'" font-size="9px">o</text>
		<text transform="matrix(0 -1 1 0 460.3332 104.9135)" fill="#808184" font-family="'Lato-Regular'" font-size="9px">p</text>
		<text transform="matrix(0 -1 1 0 460.3332 99.9457)" fill="#808184" font-family="'Lato-Regular'" font-size="9px"> </text>
		<text transform="matrix(0 -1 1 0 460.3332 98.2089)" fill="#808184" font-family="'Lato-Regular'" font-size="9px">i</text>
		<text transform="matrix(0 -1 1 0 460.3332 95.9047)" fill="#808184" font-family="'Lato-Regular'" font-size="9px">n</text>
		<text transform="matrix(0 -1 1 0 460.3332 90.9008)" fill="#808184" font-family="'Lato-Regular'" font-size="9px"> </text>
		<text transform="matrix(0 -1 1 0 460.3332 89.1639)" fill="#808184" font-family="'Lato-Regular'" font-size="9px">A</text>
		<text transform="matrix(0 -1 1 0 460.3332 83.0438)" fill="#808184" font-family="'Lato-Regular'" font-size="9px">D</text>
		<text transform="matrix(0 -1 1 0 460.3332 76.267)" fill="#808184" font-family="'Lato-Regular'" font-size="9px">P</text>
		<text transform="matrix(1 0 0 1 87.4308 204.5204)" fill="#231F20" font-family="'Lato-Regular'" font-size="9px">Less than 1</text>
		<text transform="matrix(1 0 0 1 169.8859 204.5204)" fill="#231F20" font-family="'Lato-Regular'" font-size="9px">1 to less than 2</text>
		<text transform="matrix(1 0 0 1 259.7092 204.5204)" fill="#231F20" font-family="'Lato-Regular'" font-size="9px">2 to less than 3</text>
		<text transform="matrix(1 0 0 1 359.7551 204.5204)" fill="#231F20" font-family="'Lato-Regular'" font-size="9px">3 or more</text>
		
			<line fill="none" stroke="#808184" stroke-width="0.2451" stroke-linejoin="round" stroke-miterlimit="10" x1="64.303" y1="37.498" x2="423.175" y2="37.498"/>
		
			<line fill="none" stroke="#808184" stroke-width="0.2451" stroke-linejoin="round" stroke-miterlimit="10" x1="64.303" y1="86.947" x2="423.175" y2="86.947"/>
		
			<line fill="none" stroke="#808184" stroke-width="0.2451" stroke-linejoin="round" stroke-miterlimit="10" x1="64.303" y1="137.809" x2="423.175" y2="137.809"/>
		<rect x="349.079" y="124.387" fill="#28377A" width="59.41" height="62.165"/>
		<g>
			<rect x="259.674" y="128.625" fill="#28377A" width="59.41" height="57.926"/>
			<rect x="169.644" y="101.782" fill="#28377A" width="59.41" height="84.77"/>
		</g>
		<rect x="79.614" y="59.397" fill="#28377A" width="59.41" height="127.155"/>
		
			<line fill="none" stroke="#808184" stroke-width="0.2451" stroke-linejoin="round" stroke-miterlimit="10" x1="64.303" y1="186.552" x2="423.175" y2="186.552"/>
		
			<polyline fill="none" stroke="#F37E4B" stroke-width="2.2286" stroke-linecap="round" stroke-linejoin="round" stroke-miterlimit="10" points="
			108.693,149.818 198.723,121.562 288.755,111.672 378.784,50.919 		"/>
		<text transform="matrix(1 0 0 1 86.2385 80.5531)" fill="#FFFFFF" font-family="'Lato-Black'" font-size="17.1264px">5</text>
		<text transform="matrix(1 0 0 1 95.8459 80.5531)" fill="#FFFFFF" font-family="'Lato-Black'" font-size="17.1264px">,</text>
		<text transform="matrix(1 0 0 1 99.5627 80.5531)" fill="#FFFFFF" font-family="'Lato-Black'" font-size="17.1264px">1</text>
		<text transform="matrix(1 0 0 1 109.1701 80.5531)" fill="#FFFFFF" font-family="'Lato-Black'" font-size="17.1264px">0</text>
		<text transform="matrix(1 0 0 1 118.7775 80.5531)" fill="#FFFFFF" font-family="'Lato-Black'" font-size="17.1264px">6</text>
		<text transform="matrix(1 0 0 1 178.5969 145.7504)" fill="#FFFFFF" font-family="'Lato-Black'" font-size="17.1264px">3</text>
		<text transform="matrix(1 0 0 1 188.2043 145.7504)" fill="#FFFFFF" font-family="'Lato-Black'" font-size="17.1264px">,</text>
		<text transform="matrix(1 0 0 1 191.9211 145.7504)" fill="#FFFFFF" font-family="'Lato-Black'" font-size="17.1264px">4</text>
		<text transform="matrix(1 0 0 1 201.5285 145.7504)" fill="#FFFFFF" font-family="'Lato-Black'" font-size="17.1264px">0</text>
		<text transform="matrix(1 0 0 1 211.1359 145.7504)" fill="#FFFFFF" font-family="'Lato-Black'" font-size="17.1264px">3</text>
		<text transform="matrix(1 0 0 1 267.2404 147.3846)" fill="#FFFFFF" font-family="'Lato-Black'" font-size="17.1264px">2</text>
		<text transform="matrix(1 0 0 1 276.8478 147.3846)" fill="#FFFFFF" font-family="'Lato-Black'" font-size="17.1264px">,</text>
		<text transform="matrix(1 0 0 1 280.5646 147.3846)" fill="#FFFFFF" font-family="'Lato-Black'" font-size="17.1264px">3</text>
		<text transform="matrix(1 0 0 1 290.1721 147.3846)" fill="#FFFFFF" font-family="'Lato-Black'" font-size="17.1264px">6</text>
		<text transform="matrix(1 0 0 1 299.7795 147.3846)" fill="#FFFFFF" font-family="'Lato-Black'" font-size="17.1264px">7</text>
		<text transform="matrix(1 0 0 1 357.2668 143.5223)" fill="#FFFFFF" font-family="'Lato-Black'" font-size="17.1264px">2</text>
		<text transform="matrix(1 0 0 1 366.8742 143.5223)" fill="#FFFFFF" font-family="'Lato-Black'" font-size="17.1264px">,</text>
		<text transform="matrix(1 0 0 1 370.591 143.5223)" fill="#FFFFFF" font-family="'Lato-Black'" font-size="17.1264px">4</text>
		<text transform="matrix(1 0 0 1 380.1984 143.5223)" fill="#FFFFFF" font-family="'Lato-Black'" font-size="17.1264px">9</text>
		<text transform="matrix(1 0 0 1 389.8058 143.5223)" fill="#FFFFFF" font-family="'Lato-Black'" font-size="17.1264px">2</text>
		<g>
			<rect x="12.553" y="233.183" fill-rule="evenodd" fill="#28377A" width="7.777" height="9.657"/>
			<text transform="matrix(1 0 0 1 25.8752 242.8412)" fill="#808184" font-family="'Lato-Regular'" font-size="9px">N</text>
			<text transform="matrix(1 0 0 1 32.6789 242.8412)" fill="#808184" font-family="'Lato-Regular'" font-size="9px">u</text>
			<text transform="matrix(1 0 0 1 37.6828 242.8412)" fill="#808184" font-family="'Lato-Regular'" font-size="9px">m</text>
			<text transform="matrix(1 0 0 1 45.0724 242.8412)" fill="#808184" font-family="'Lato-Regular'" font-size="9px">b</text>
			<text transform="matrix(1 0 0 1 50.1027 242.8412)" fill="#808184" font-family="'Lato-Regular'" font-size="9px">e</text>
			<text transform="matrix(1 0 0 1 54.8185 242.8412)" fill="#808184" font-family="'Lato-Regular'" font-size="9px">r</text>
			<text transform="matrix(1 0 0 1 58.4455 242.8412)" fill="#808184" font-family="'Lato-Regular'" font-size="9px"> </text>
			<text transform="matrix(1 0 0 1 60.1828 242.8412)" fill="#808184" font-family="'Lato-Regular'" font-size="9px">o</text>
			<text transform="matrix(1 0 0 1 65.1867 242.8412)" fill="#808184" font-family="'Lato-Regular'" font-size="9px">f</text>
			<text transform="matrix(1 0 0 1 68.2199 242.8412)" fill="#808184" font-family="'Lato-Regular'" font-size="9px"> </text>
			<text transform="matrix(1 0 0 1 69.9572 242.8412)" fill="#808184" font-family="'Lato-Regular'" font-size="9px">p</text>
			<text transform="matrix(1 0 0 1 74.925 242.8412)" fill="#808184" font-family="'Lato-Regular'" font-size="9px">e</text>
			<text transform="matrix(1 0 0 1 79.6408 242.8412)" fill="#808184" font-family="'Lato-Regular'" font-size="9px">o</text>
			<text transform="matrix(1 0 0 1 84.6447 242.8412)" fill="#808184" font-family="'Lato-Regular'" font-size="9px">p</text>
			<text transform="matrix(1 0 0 1 89.6125 242.8412)" fill="#808184" font-family="'Lato-Regular'" font-size="9px">l</text>
			<text transform="matrix(1 0 0 1 91.9162 242.8412)" fill="#808184" font-family="'Lato-Regular'" font-size="9px">e</text>
			<text transform="matrix(1 0 0 1 96.632 242.8412)" fill="#808184" font-family="'Lato-Regular'" font-size="9px"> </text>
			<text transform="matrix(1 0 0 1 98.3693 242.8412)" fill="#808184" font-family="'Lato-Regular'" font-size="9px">w</text>
			<text transform="matrix(1 0 0 1 105.2629 242.8412)" fill="#808184" font-family="'Lato-Regular'" font-size="9px">i</text>
			<text transform="matrix(1 0 0 1 107.5666 242.8412)" fill="#808184" font-family="'Lato-Regular'" font-size="9px">t</text>
			<text transform="matrix(1 0 0 1 110.924 242.8412)" fill="#808184" font-family="'Lato-Regular'" font-size="9px">h</text>
			<text transform="matrix(1 0 0 1 115.9279 242.8412)" fill="#808184" font-family="'Lato-Regular'" font-size="9px"> </text>
			<text transform="matrix(1 0 0 1 117.6652 242.8412)" fill="#808184" font-family="'Lato-Regular'" font-size="9px">r</text>
			<text transform="matrix(1 0 0 1 121.1389 242.8412)" fill="#808184" font-family="'Lato-Regular'" font-size="9px">e</text>
			<text transform="matrix(1 0 0 1 125.8547 242.8412)" fill="#808184" font-family="'Lato-Regular'" font-size="9px">d</text>
			<text transform="matrix(1 0 0 1 130.8859 242.8412)" fill="#808184" font-family="'Lato-Regular'" font-size="9px">u</text>
			<text transform="matrix(1 0 0 1 135.8898 242.8412)" fill="#808184" font-family="'Lato-Regular'" font-size="9px">c</text>
			<text transform="matrix(1 0 0 1 140.0119 242.8412)" fill="#808184" font-family="'Lato-Regular'" font-size="9px">e</text>
			<text transform="matrix(1 0 0 1 144.7277 242.8412)" fill="#808184" font-family="'Lato-Regular'" font-size="9px">d</text>
			<text transform="matrix(1 0 0 1 149.758 242.8412)" fill="#808184" font-family="'Lato-Regular'" font-size="9px"> </text>
			<text transform="matrix(1 0 0 1 151.4953 242.8412)" fill="#808184" font-family="'Lato-Regular'" font-size="9px">p</text>
			<text transform="matrix(1 0 0 1 156.4631 242.8412)" fill="#808184" font-family="'Lato-Regular'" font-size="9px">r</text>
			<text transform="matrix(1 0 0 1 159.9377 242.8412)" fill="#808184" font-family="'Lato-Regular'" font-size="9px">o</text>
			<text transform="matrix(1 0 0 1 164.9416 242.8412)" fill="#808184" font-family="'Lato-Regular'" font-size="9px">b</text>
			<text transform="matrix(1 0 0 1 169.9719 242.8412)" fill="#808184" font-family="'Lato-Regular'" font-size="9px">a</text>
			<text transform="matrix(1 0 0 1 174.5353 242.8412)" fill="#808184" font-family="'Lato-Regular'" font-size="9px">t</text>
			<text transform="matrix(1 0 0 1 177.8918 242.8412)" fill="#808184" font-family="'Lato-Regular'" font-size="9px">i</text>
			<text transform="matrix(1 0 0 1 180.1955 242.8412)" fill="#808184" font-family="'Lato-Regular'" font-size="9px">o</text>
			<text transform="matrix(1 0 0 1 185.1994 242.8412)" fill="#808184" font-family="'Lato-Regular'" font-size="9px">n</text>
		</g>
		<g>
			<text transform="matrix(1 0 0 1 226.7971 241.932)" fill="#808184" font-family="'Lato-Regular'" font-size="9px">S</text>
			<text transform="matrix(1 0 0 1 231.5666 241.932)" fill="#808184" font-family="'Lato-Regular'" font-size="9px">h</text>
			<text transform="matrix(1 0 0 1 236.5715 241.932)" fill="#808184" font-family="'Lato-Regular'" font-size="9px">a</text>
			<text transform="matrix(1 0 0 1 241.134 241.932)" fill="#808184" font-family="'Lato-Regular'" font-size="9px">r</text>
			<text transform="matrix(1 0 0 1 244.6076 241.932)" fill="#808184" font-family="'Lato-Regular'" font-size="9px">e</text>
			<text transform="matrix(1 0 0 1 249.3234 241.932)" fill="#808184" font-family="'Lato-Regular'" font-size="9px"> </text>
			<text transform="matrix(1 0 0 1 251.0607 241.932)" fill="#808184" font-family="'Lato-Regular'" font-size="9px">o</text>
			<text transform="matrix(1 0 0 1 256.0646 241.932)" fill="#808184" font-family="'Lato-Regular'" font-size="9px">f</text>
			<text transform="matrix(1 0 0 1 259.0978 241.932)" fill="#808184" font-family="'Lato-Regular'" font-size="9px"> </text>
			<text transform="matrix(1 0 0 1 260.8342 241.932)" fill="#808184" font-family="'Lato-Regular'" font-size="9px">A</text>
			<text transform="matrix(1 0 0 1 266.9543 241.932)" fill="#808184" font-family="'Lato-Regular'" font-size="9px">D</text>
			<text transform="matrix(1 0 0 1 273.7316 241.932)" fill="#808184" font-family="'Lato-Regular'" font-size="9px">P</text>
			<text transform="matrix(1 0 0 1 279.2307 241.932)" fill="#808184" font-family="'Lato-Regular'" font-size="9px"> </text>
			<text transform="matrix(1 0 0 1 280.967 241.932)" fill="#808184" font-family="'Lato-Regular'" font-size="9px">d</text>
			<text transform="matrix(1 0 0 1 285.9982 241.932)" fill="#808184" font-family="'Lato-Regular'" font-size="9px">r</text>
			<text transform="matrix(1 0 0 1 289.4719 241.932)" fill="#808184" font-family="'Lato-Regular'" font-size="9px">o</text>
			<text transform="matrix(1 0 0 1 294.4758 241.932)" fill="#808184" font-family="'Lato-Regular'" font-size="9px">p</text>
			
				<line fill="none" stroke="#F37E4B" stroke-width="2.2286" stroke-miterlimit="10" x1="212.084" y1="237.968" x2="223.586" y2="237.968"/>
		</g>
		<text transform="matrix(1 0 0 1 101.7385 141.183)" fill="#F37E4B" font-family="'Lato-Regular'" font-size="9px">4%</text>
		<rect x="364.396" y="27.399" fill="#FFFFFF" width="36.475" height="20.197"/>
		<text transform="matrix(1 0 0 1 194.298 112.5677)" fill="#F37E4B" font-family="'Lato-Regular'" font-size="9px">7%</text>
		<text transform="matrix(1 0 0 1 280.3586 101.7826)" fill="#F37E4B" font-family="'Lato-Regular'" font-size="9px">8%</text>
		<text transform="matrix(1 0 0 1 369.7873 42.038)" fill="#F37E4B" font-family="'Lato-Regular'" font-size="9px">14%</text>
		<text transform="matrix(1 0 0 1 160.6906 223.0087)" fill="#808184" font-family="'Lato-Regular'" font-size="9px">Years term could have been safely reduced</text>
	</g>
	<text transform="matrix(1 0 0 1 0.6642 11.2391)" fill="#333333" font-family="'Lato-Heavy'" font-size="12px">S</text>
	<text transform="matrix(1 0 0 1 7.2639 11.2391)" fill="#333333" font-family="'Lato-Heavy'" font-size="12px">o</text>
	<text transform="matrix(1 0 0 1 14.1945 11.2391)" fill="#333333" font-family="'Lato-Heavy'" font-size="12px">u</text>
	<text transform="matrix(1 0 0 1 20.9924 11.2391)" fill="#333333" font-family="'Lato-Heavy'" font-size="12px">t</text>
	<text transform="matrix(1 0 0 1 25.5217 11.2391)" fill="#333333" font-family="'Lato-Heavy'" font-size="12px">h</text>
	<text transform="matrix(1 0 0 1 32.3264 11.2391)" fill="#333333" font-family="'Lato-Heavy'" font-size="12px"> </text>
	<text transform="matrix(1 0 0 1 35.176 11.2391)" fill="#333333" font-family="'Lato-Heavy'" font-size="12px">C</text>
	<text transform="matrix(1 0 0 1 43.0842 11.2391)" fill="#333333" font-family="'Lato-Heavy'" font-size="12px">a</text>
	<text transform="matrix(1 0 0 1 49.2277 11.2391)" fill="#333333" font-family="'Lato-Heavy'" font-size="12px">r</text>
	<text transform="matrix(1 0 0 1 53.6076 11.2391)" fill="#333333" font-family="'Lato-Heavy'" font-size="12px">o</text>
	<text transform="matrix(1 0 0 1 60.5373 11.2391)" fill="#333333" font-family="'Lato-Heavy'" font-size="12px">l</text>
	<text transform="matrix(1 0 0 1 63.5861 11.2391)" fill="#333333" font-family="'Lato-Heavy'" font-size="12px">i</text>
	<text transform="matrix(1 0 0 1 66.7053 11.2391)" fill="#333333" font-family="'Lato-Heavy'" font-size="12px">n</text>
	<text transform="matrix(1 0 0 1 73.5099 11.2391)" fill="#333333" font-family="'Lato-Heavy'" font-size="12px">a</text>
	<text transform="matrix(1 0 0 1 0.6642 270.8231)" fill="#333333" font-family="'Lato-Heavy'" font-size="12px">O</text>
	<text transform="matrix(1 0 0 1 10.3 270.8231)" fill="#333333" font-family="'Lato-Heavy'" font-size="12px">r</text>
	<text transform="matrix(1 0 0 1 14.6799 270.8231)" fill="#333333" font-family="'Lato-Heavy'" font-size="12px">e</text>
	<text transform="matrix(1 0 0 1 21.1125 270.8231)" fill="#333333" font-family="'Lato-Heavy'" font-size="12px">g</text>
	<text transform="matrix(1 0 0 1 27.3762 270.8231)" fill="#333333" font-family="'Lato-Heavy'" font-size="12px">o</text>
	<text transform="matrix(1 0 0 1 34.3058 270.8231)" fill="#333333" font-family="'Lato-Heavy'" font-size="12px">n</text>
	<g>
		<text transform="matrix(0 -1 1 0 18.9924 443.0853)" fill="#808184" font-family="'Lato-Regular'" font-size="9px">P</text>
		<text transform="matrix(0 -1 1 0 18.9924 437.8295)" fill="#808184" font-family="'Lato-Regular'" font-size="9px">e</text>
		<text transform="matrix(0 -1 1 0 18.9924 433.1136)" fill="#808184" font-family="'Lato-Regular'" font-size="9px">o</text>
		<text transform="matrix(0 -1 1 0 18.9924 428.1097)" fill="#808184" font-family="'Lato-Regular'" font-size="9px">p</text>
		<text transform="matrix(0 -1 1 0 18.9924 423.1415)" fill="#808184" font-family="'Lato-Regular'" font-size="9px">l</text>
		<text transform="matrix(0 -1 1 0 18.9924 420.8378)" fill="#808184" font-family="'Lato-Regular'" font-size="9px">e</text>
		<text transform="matrix(0 -1 1 0 18.9924 416.1219)" fill="#808184" font-family="'Lato-Regular'" font-size="9px"> </text>
		<text transform="matrix(0 -1 1 0 18.9924 414.3846)" fill="#808184" font-family="'Lato-Regular'" font-size="9px">w</text>
		<text transform="matrix(0 -1 1 0 18.9924 407.4911)" fill="#808184" font-family="'Lato-Regular'" font-size="9px">i</text>
		<text transform="matrix(0 -1 1 0 18.9924 405.1869)" fill="#808184" font-family="'Lato-Regular'" font-size="9px">t</text>
		<text transform="matrix(0 -1 1 0 18.9924 401.83)" fill="#808184" font-family="'Lato-Regular'" font-size="9px">h</text>
		<text transform="matrix(0 -1 1 0 18.9924 396.826)" fill="#808184" font-family="'Lato-Regular'" font-size="9px"> </text>
		<text transform="matrix(0 -1 1 0 18.9924 395.0892)" fill="#808184" font-family="'Lato-Regular'" font-size="9px">r</text>
		<text transform="matrix(0 -1 1 0 18.9924 391.6239)" fill="#808184" font-family="'Lato-Regular'" font-size="9px">e</text>
		<text transform="matrix(0 -1 1 0 18.9924 386.9081)" fill="#808184" font-family="'Lato-Regular'" font-size="9px">d</text>
		<text transform="matrix(0 -1 1 0 18.9924 381.8773)" fill="#808184" font-family="'Lato-Regular'" font-size="9px">u</text>
		<text transform="matrix(0 -1 1 0 18.9924 376.8734)" fill="#808184" font-family="'Lato-Regular'" font-size="9px">c</text>
		<text transform="matrix(0 -1 1 0 18.9924 372.7426)" fill="#808184" font-family="'Lato-Regular'" font-size="9px">e</text>
		<text transform="matrix(0 -1 1 0 18.9924 368.0267)" fill="#808184" font-family="'Lato-Regular'" font-size="9px">d</text>
		<text transform="matrix(0 -1 1 0 18.9924 362.9955)" fill="#808184" font-family="'Lato-Regular'" font-size="9px"> </text>
		<text transform="matrix(0 -1 1 0 18.9924 361.2587)" fill="#808184" font-family="'Lato-Regular'" font-size="9px">l</text>
		<text transform="matrix(0 -1 1 0 18.9924 359.3597)" fill="#808184" font-family="'Lato-Regular'" font-size="9px">e</text>
		<text transform="matrix(0 -1 1 0 18.9924 355.0487)" fill="#808184" font-family="'Lato-Regular'" font-size="9px">n</text>
		<text transform="matrix(0 -1 1 0 18.9924 350.4496)" fill="#808184" font-family="'Lato-Regular'" font-size="9px">g</text>
		<text transform="matrix(0 -1 1 0 18.9924 346.2557)" fill="#808184" font-family="'Lato-Regular'" font-size="9px">t</text>
		<text transform="matrix(0 -1 1 0 18.9924 343.3041)" fill="#808184" font-family="'Lato-Regular'" font-size="9px">h</text>
		<text transform="matrix(0 -1 1 0 18.9924 338.705)" fill="#808184" font-family="'Lato-Regular'" font-size="9px"> </text>
		<text transform="matrix(0 -1 1 0 18.9924 337.3729)" fill="#808184" font-family="'Lato-Regular'" font-size="9px">o</text>
		<text transform="matrix(0 -1 1 0 18.9924 332.7743)" fill="#808184" font-family="'Lato-Regular'" font-size="9px">f</text>
		<text transform="matrix(0 -1 1 0 18.9924 330.1464)" fill="#808184" font-family="'Lato-Regular'" font-size="9px"> </text>
		<text transform="matrix(0 -1 1 0 18.9924 328.8143)" fill="#808184" font-family="'Lato-Regular'" font-size="9px">s</text>
		<text transform="matrix(0 -1 1 0 18.9924 325.3134)" fill="#808184" font-family="'Lato-Regular'" font-size="9px">u</text>
		<text transform="matrix(0 -1 1 0 18.9924 320.7142)" fill="#808184" font-family="'Lato-Regular'" font-size="9px">p</text>
		<text transform="matrix(0 -1 1 0 18.9924 316.1512)" fill="#808184" font-family="'Lato-Regular'" font-size="9px">e</text>
		<text transform="matrix(0 -1 1 0 18.9924 311.8407)" fill="#808184" font-family="'Lato-Regular'" font-size="9px">r</text>
		<text transform="matrix(0 -1 1 0 18.9924 308.6185)" fill="#808184" font-family="'Lato-Regular'" font-size="9px">v</text>
		<text transform="matrix(0 -1 1 0 18.9924 304.4159)" fill="#808184" font-family="'Lato-Regular'" font-size="9px">i</text>
		<text transform="matrix(0 -1 1 0 18.9924 302.5165)" fill="#808184" font-family="'Lato-Regular'" font-size="9px">s</text>
		<text transform="matrix(0 -1 1 0 18.9924 299.016)" fill="#808184" font-family="'Lato-Regular'" font-size="9px">i</text>
		<text transform="matrix(0 -1 1 0 18.9924 297.1166)" fill="#808184" font-family="'Lato-Regular'" font-size="9px">o</text>
		<text transform="matrix(0 -1 1 0 18.9924 292.5179)" fill="#808184" font-family="'Lato-Regular'" font-size="9px">n</text>
		<text transform="matrix(0 -1 1 0 459.3078 383.39)" fill="#808184" font-family="'Lato-Regular'" font-size="9px">%</text>
		<text transform="matrix(0 -1 1 0 459.3078 376.3163)" fill="#808184" font-family="'Lato-Regular'" font-size="9px"> </text>
		<text transform="matrix(0 -1 1 0 459.3078 374.579)" fill="#808184" font-family="'Lato-Regular'" font-size="9px">d</text>
		<text transform="matrix(0 -1 1 0 459.3078 369.5482)" fill="#808184" font-family="'Lato-Regular'" font-size="9px">r</text>
		<text transform="matrix(0 -1 1 0 459.3078 366.0741)" fill="#808184" font-family="'Lato-Regular'" font-size="9px">o</text>
		<text transform="matrix(0 -1 1 0 459.3078 361.0702)" fill="#808184" font-family="'Lato-Regular'" font-size="9px">p</text>
		<text transform="matrix(0 -1 1 0 459.3078 356.1024)" fill="#808184" font-family="'Lato-Regular'" font-size="9px"> </text>
		<text transform="matrix(0 -1 1 0 459.3078 354.3656)" fill="#808184" font-family="'Lato-Regular'" font-size="9px">i</text>
		<text transform="matrix(0 -1 1 0 459.3078 352.0614)" fill="#808184" font-family="'Lato-Regular'" font-size="9px">n</text>
		<text transform="matrix(0 -1 1 0 459.3078 347.0575)" fill="#808184" font-family="'Lato-Regular'" font-size="9px"> </text>
		<text transform="matrix(0 -1 1 0 459.3078 345.3207)" fill="#808184" font-family="'Lato-Regular'" font-size="9px">A</text>
		<text transform="matrix(0 -1 1 0 459.3078 339.2006)" fill="#808184" font-family="'Lato-Regular'" font-size="9px">D</text>
		<text transform="matrix(0 -1 1 0 459.3078 332.4237)" fill="#808184" font-family="'Lato-Regular'" font-size="9px">P</text>
		<g>
			<rect x="12.553" y="493.23" fill-rule="evenodd" fill="#28377A" width="7.777" height="9.657"/>
			<text transform="matrix(1 0 0 1 25.8752 502.8876)" fill="#808184" font-family="'Lato-Regular'" font-size="9px">N</text>
			<text transform="matrix(1 0 0 1 32.6789 502.8876)" fill="#808184" font-family="'Lato-Regular'" font-size="9px">u</text>
			<text transform="matrix(1 0 0 1 37.6828 502.8876)" fill="#808184" font-family="'Lato-Regular'" font-size="9px">m</text>
			<text transform="matrix(1 0 0 1 45.0724 502.8876)" fill="#808184" font-family="'Lato-Regular'" font-size="9px">b</text>
			<text transform="matrix(1 0 0 1 50.1027 502.8876)" fill="#808184" font-family="'Lato-Regular'" font-size="9px">e</text>
			<text transform="matrix(1 0 0 1 54.8185 502.8876)" fill="#808184" font-family="'Lato-Regular'" font-size="9px">r</text>
			<text transform="matrix(1 0 0 1 58.4455 502.8876)" fill="#808184" font-family="'Lato-Regular'" font-size="9px"> </text>
			<text transform="matrix(1 0 0 1 60.1828 502.8876)" fill="#808184" font-family="'Lato-Regular'" font-size="9px">o</text>
			<text transform="matrix(1 0 0 1 65.1867 502.8876)" fill="#808184" font-family="'Lato-Regular'" font-size="9px">f</text>
			<text transform="matrix(1 0 0 1 68.2199 502.8876)" fill="#808184" font-family="'Lato-Regular'" font-size="9px"> </text>
			<text transform="matrix(1 0 0 1 69.9572 502.8876)" fill="#808184" font-family="'Lato-Regular'" font-size="9px">p</text>
			<text transform="matrix(1 0 0 1 74.925 502.8876)" fill="#808184" font-family="'Lato-Regular'" font-size="9px">e</text>
			<text transform="matrix(1 0 0 1 79.6408 502.8876)" fill="#808184" font-family="'Lato-Regular'" font-size="9px">o</text>
			<text transform="matrix(1 0 0 1 84.6447 502.8876)" fill="#808184" font-family="'Lato-Regular'" font-size="9px">p</text>
			<text transform="matrix(1 0 0 1 89.6125 502.8876)" fill="#808184" font-family="'Lato-Regular'" font-size="9px">l</text>
			<text transform="matrix(1 0 0 1 91.9162 502.8876)" fill="#808184" font-family="'Lato-Regular'" font-size="9px">e</text>
			<text transform="matrix(1 0 0 1 96.632 502.8876)" fill="#808184" font-family="'Lato-Regular'" font-size="9px"> </text>
			<text transform="matrix(1 0 0 1 98.3693 502.8876)" fill="#808184" font-family="'Lato-Regular'" font-size="9px">w</text>
			<text transform="matrix(1 0 0 1 105.2629 502.8876)" fill="#808184" font-family="'Lato-Regular'" font-size="9px">i</text>
			<text transform="matrix(1 0 0 1 107.5666 502.8876)" fill="#808184" font-family="'Lato-Regular'" font-size="9px">t</text>
			<text transform="matrix(1 0 0 1 110.924 502.8876)" fill="#808184" font-family="'Lato-Regular'" font-size="9px">h</text>
			<text transform="matrix(1 0 0 1 115.9279 502.8876)" fill="#808184" font-family="'Lato-Regular'" font-size="9px"> </text>
			<text transform="matrix(1 0 0 1 117.6652 502.8876)" fill="#808184" font-family="'Lato-Regular'" font-size="9px">r</text>
			<text transform="matrix(1 0 0 1 121.1389 502.8876)" fill="#808184" font-family="'Lato-Regular'" font-size="9px">e</text>
			<text transform="matrix(1 0 0 1 125.8547 502.8876)" fill="#808184" font-family="'Lato-Regular'" font-size="9px">d</text>
			<text transform="matrix(1 0 0 1 130.8859 502.8876)" fill="#808184" font-family="'Lato-Regular'" font-size="9px">u</text>
			<text transform="matrix(1 0 0 1 135.8898 502.8876)" fill="#808184" font-family="'Lato-Regular'" font-size="9px">c</text>
			<text transform="matrix(1 0 0 1 140.0119 502.8876)" fill="#808184" font-family="'Lato-Regular'" font-size="9px">e</text>
			<text transform="matrix(1 0 0 1 144.7277 502.8876)" fill="#808184" font-family="'Lato-Regular'" font-size="9px">d</text>
			<text transform="matrix(1 0 0 1 149.758 502.8876)" fill="#808184" font-family="'Lato-Regular'" font-size="9px"> </text>
			<text transform="matrix(1 0 0 1 151.4953 502.8876)" fill="#808184" font-family="'Lato-Regular'" font-size="9px">p</text>
			<text transform="matrix(1 0 0 1 156.4631 502.8876)" fill="#808184" font-family="'Lato-Regular'" font-size="9px">r</text>
			<text transform="matrix(1 0 0 1 159.9377 502.8876)" fill="#808184" font-family="'Lato-Regular'" font-size="9px">o</text>
			<text transform="matrix(1 0 0 1 164.9416 502.8876)" fill="#808184" font-family="'Lato-Regular'" font-size="9px">b</text>
			<text transform="matrix(1 0 0 1 169.9719 502.8876)" fill="#808184" font-family="'Lato-Regular'" font-size="9px">a</text>
			<text transform="matrix(1 0 0 1 174.5353 502.8876)" fill="#808184" font-family="'Lato-Regular'" font-size="9px">t</text>
			<text transform="matrix(1 0 0 1 177.8918 502.8876)" fill="#808184" font-family="'Lato-Regular'" font-size="9px">i</text>
			<text transform="matrix(1 0 0 1 180.1955 502.8876)" fill="#808184" font-family="'Lato-Regular'" font-size="9px">o</text>
			<text transform="matrix(1 0 0 1 185.1994 502.8876)" fill="#808184" font-family="'Lato-Regular'" font-size="9px">n</text>
		</g>
		<g>
			<text transform="matrix(1 0 0 1 234.1535 501.9784)" fill="#808184" font-family="'Lato-Regular'" font-size="9px">S</text>
			<text transform="matrix(1 0 0 1 238.923 501.9784)" fill="#808184" font-family="'Lato-Regular'" font-size="9px">h</text>
			<text transform="matrix(1 0 0 1 243.9279 501.9784)" fill="#808184" font-family="'Lato-Regular'" font-size="9px">a</text>
			<text transform="matrix(1 0 0 1 248.4904 501.9784)" fill="#808184" font-family="'Lato-Regular'" font-size="9px">r</text>
			<text transform="matrix(1 0 0 1 251.9641 501.9784)" fill="#808184" font-family="'Lato-Regular'" font-size="9px">e</text>
			<text transform="matrix(1 0 0 1 256.6799 501.9784)" fill="#808184" font-family="'Lato-Regular'" font-size="9px"> </text>
			<text transform="matrix(1 0 0 1 258.4172 501.9784)" fill="#808184" font-family="'Lato-Regular'" font-size="9px">o</text>
			<text transform="matrix(1 0 0 1 263.4211 501.9784)" fill="#808184" font-family="'Lato-Regular'" font-size="9px">f</text>
			<text transform="matrix(1 0 0 1 266.4543 501.9784)" fill="#808184" font-family="'Lato-Regular'" font-size="9px"> </text>
			<text transform="matrix(1 0 0 1 268.1906 501.9784)" fill="#808184" font-family="'Lato-Regular'" font-size="9px">A</text>
			<text transform="matrix(1 0 0 1 274.3107 501.9784)" fill="#808184" font-family="'Lato-Regular'" font-size="9px">D</text>
			<text transform="matrix(1 0 0 1 281.0881 501.9784)" fill="#808184" font-family="'Lato-Regular'" font-size="9px">P</text>
			<text transform="matrix(1 0 0 1 286.5871 501.9784)" fill="#808184" font-family="'Lato-Regular'" font-size="9px"> </text>
			<text transform="matrix(1 0 0 1 288.3234 501.9784)" fill="#808184" font-family="'Lato-Regular'" font-size="9px">d</text>
			<text transform="matrix(1 0 0 1 293.3547 501.9784)" fill="#808184" font-family="'Lato-Regular'" font-size="9px">r</text>
			<text transform="matrix(1 0 0 1 296.8283 501.9784)" fill="#808184" font-family="'Lato-Regular'" font-size="9px">o</text>
			<text transform="matrix(1 0 0 1 301.8322 501.9784)" fill="#808184" font-family="'Lato-Regular'" font-size="9px">p</text>
			
				<line fill="none" stroke="#F37E4B" stroke-width="2.2286" stroke-miterlimit="10" x1="219.44" y1="498.015" x2="230.943" y2="498.015"/>
		</g>
		<text transform="matrix(1 0 0 1 155.0568 485.5126)" fill="#808184" font-family="'Lato-Regular'" font-size="9px">Years term could have been safely reduced</text>
		
			<line fill="none" stroke="#808184" stroke-width="0.2451" stroke-linejoin="round" stroke-miterlimit="10" x1="63.053" y1="296.558" x2="421.194" y2="296.558"/>
		
			<line fill="none" stroke="#808184" stroke-width="0.2451" stroke-linejoin="round" stroke-miterlimit="10" x1="63.053" y1="335.256" x2="421.194" y2="335.256"/>
		
			<line fill="none" stroke="#808184" stroke-width="0.2451" stroke-linejoin="round" stroke-miterlimit="10" x1="63.053" y1="373.954" x2="421.194" y2="373.954"/>
		
			<line fill="none" stroke="#808184" stroke-width="0.2451" stroke-linejoin="round" stroke-miterlimit="10" x1="63.053" y1="412.652" x2="421.194" y2="412.652"/>
		
			<line fill="none" stroke="#808184" stroke-width="0.2451" stroke-linejoin="round" stroke-miterlimit="10" x1="63.053" y1="451.349" x2="421.194" y2="451.349"/>
		<rect x="347.389" y="412.251" fill="#28377A" width="59.289" height="38.564"/>
		<g>
			<rect x="257.448" y="386.542" fill="#28377A" width="59.289" height="64.272"/>
			<rect x="167.508" y="365.12" fill="#28377A" width="59.289" height="85.696"/>
		</g>
		<rect x="77.57" y="292.278" fill="#28377A" width="59.289" height="158.538"/>
		<text transform="matrix(1 0 0 1 52.2355 454.4354)" fill="#231F20" font-family="'Lato-Regular'" font-size="9px">0 </text>
		<text transform="matrix(1 0 0 1 31.1848 299.6449)" fill="#231F20" font-family="'Lato-Regular'" font-size="9px">16,000</text>
		<text transform="matrix(1 0 0 1 31.1848 338.3431)" fill="#231F20" font-family="'Lato-Regular'" font-size="9px">12,000</text>
		<text transform="matrix(1 0 0 1 36.4035 377.0404)" fill="#231F20" font-family="'Lato-Regular'" font-size="9px">8,000</text>
		<text transform="matrix(1 0 0 1 36.4035 415.7382)" fill="#231F20" font-family="'Lato-Regular'" font-size="9px">4,000</text>
		<text transform="matrix(1 0 0 1 427.0598 454.4354)" fill="#231F20" font-family="'Lato-Regular'" font-size="9px">0% </text>
		<text transform="matrix(1 0 0 1 425.6994 299.6449)" fill="#231F20" font-family="'Lato-Regular'" font-size="9px">16%</text>
		<g>
			<text transform="matrix(1 0 0 1 425.6994 377.0409)" fill="#231F20" font-family="'Lato-Regular'" font-size="9px">8%</text>
		</g>
		<g>
			<text transform="matrix(1 0 0 1 425.6994 338.3427)" fill="#231F20" font-family="'Lato-Regular'" font-size="9px">12%</text>
		</g>
		<g>
			<text transform="matrix(1 0 0 1 425.6994 415.7382)" fill="#231F20" font-family="'Lato-Regular'" font-size="9px">4%</text>
		</g>
		<text transform="matrix(1 0 0 1 83.091 468.5165)" fill="#231F20" font-family="'Lato-Regular'" font-size="9px">More than 1</text>
		<text transform="matrix(1 0 0 1 167.8996 468.5165)" fill="#231F20" font-family="'Lato-Regular'" font-size="9px">1 to less than 2</text>
		<text transform="matrix(1 0 0 1 257.84 468.5165)" fill="#231F20" font-family="'Lato-Regular'" font-size="9px">2 to less than 3</text>
		<text transform="matrix(1 0 0 1 358.0031 468.5165)" fill="#231F20" font-family="'Lato-Regular'" font-size="9px">3 or more</text>
		<text transform="matrix(1 0 0 1 79.2814 314.3641)" fill="#FFFFFF" font-family="'Lato-Black'" font-size="17.1264px">16,372</text>
		<text transform="matrix(1 0 0 1 176.4191 386.5428)" fill="#FFFFFF" font-family="'Lato-Black'" font-size="17.1264px">8,829</text>
		<text transform="matrix(1 0 0 1 264.884 407.3046)" fill="#FFFFFF" font-family="'Lato-Black'" font-size="17.1264px">6,638</text>
		<text transform="matrix(1 0 0 1 354.7258 428.0546)" fill="#FFFFFF" font-family="'Lato-Black'" font-size="17.1264px">4,032</text>
		<text transform="matrix(1 0 0 1 97.1808 378.723)" fill="#F37E4B" font-family="'Lato-Regular'" font-size="9px">7%</text>
		<rect x="360.823" y="282.108" fill="#FFFFFF" width="36.4" height="20.34"/>
		<text transform="matrix(1 0 0 1 187.2121 350.4535)" fill="#F37E4B" font-family="'Lato-Regular'" font-size="9px">10%</text>
		<text transform="matrix(1 0 0 1 277.6516 328.7152)" fill="#F37E4B" font-family="'Lato-Regular'" font-size="9px">12%</text>
		<text transform="matrix(1 0 0 1 369.7873 299.6449)" fill="#F37E4B" font-family="'Lato-Regular'" font-size="9px">14%</text>
		
			<polyline fill="none" stroke="#F37E4B" stroke-width="2" stroke-linecap="round" stroke-linejoin="round" stroke-miterlimit="10" points="
			107.214,386.542 197.154,357.014 287.093,341.579 377.033,314.363 		"/>
	</g>
</g>
<style type="text/css">
#g-example-static-img rect, #g-example-static-img circle, #g-example-static-img path, #g-example-static-img line, #g-example-static-img polyline { vector-effect: non-scaling-stroke; }
</style>
</svg>

