<?xml version="1.0" encoding="utf-8"?>
<!-- Generator: Adobe Illustrator 23.0.1, SVG Export Plug-In . SVG Version: 6.00 Build 0)  -->
<svg version="1.2" baseProfile="tiny" id="g-example-large-img" xmlns="http://www.w3.org/2000/svg" xmlns:xlink="http://www.w3.org/1999/xlink"
	 x="0px" y="0px" viewBox="0 0 468 507.938" xml:space="preserve">
<g>
	<g>
		
			<line fill="none" stroke="#808184" stroke-width="0.2451" stroke-linejoin="round" stroke-miterlimit="10" x1="64.303" y1="37.498" x2="423.175" y2="37.498"/>
		
			<line fill="none" stroke="#808184" stroke-width="0.2451" stroke-linejoin="round" stroke-miterlimit="10" x1="64.303" y1="86.947" x2="423.175" y2="86.947"/>
		
			<line fill="none" stroke="#808184" stroke-width="0.2451" stroke-linejoin="round" stroke-miterlimit="10" x1="64.303" y1="137.809" x2="423.175" y2="137.809"/>
		<rect x="349.079" y="124.387" fill="#28377A" width="59.41" height="62.165"/>
		<g>
			<rect x="259.674" y="128.625" fill="#28377A" width="59.41" height="57.926"/>
			<rect x="169.644" y="101.782" fill="#28377A" width="59.41" height="84.77"/>
		</g>
		<rect x="79.614" y="59.397" fill="#28377A" width="59.41" height="127.155"/>
		
			<line fill="none" stroke="#808184" stroke-width="0.2451" stroke-linejoin="round" stroke-miterlimit="10" x1="64.303" y1="186.552" x2="423.175" y2="186.552"/>
		
			<polyline fill="none" stroke="#F37E4B" stroke-width="2.2286" stroke-linecap="round" stroke-linejoin="round" stroke-miterlimit="10" points="
			108.693,149.818 198.723,121.562 288.755,111.672 378.784,50.919 		"/>
		<g>
			<rect x="12.553" y="233.183" fill-rule="evenodd" fill="#28377A" width="7.777" height="9.657"/>
			<g display="none">
				
					<text transform="matrix(1 0 0 1 25.8752 242.8412)" display="inline" fill="#808184" font-family="'Lato-Regular'" font-size="9px">N</text>
				
					<text transform="matrix(1 0 0 1 32.6789 242.8412)" display="inline" fill="#808184" font-family="'Lato-Regular'" font-size="9px">u</text>
				
					<text transform="matrix(1 0 0 1 37.6828 242.8412)" display="inline" fill="#808184" font-family="'Lato-Regular'" font-size="9px">m</text>
				
					<text transform="matrix(1 0 0 1 45.0724 242.8412)" display="inline" fill="#808184" font-family="'Lato-Regular'" font-size="9px">b</text>
				
					<text transform="matrix(1 0 0 1 50.1027 242.8412)" display="inline" fill="#808184" font-family="'Lato-Regular'" font-size="9px">e</text>
				
					<text transform="matrix(1 0 0 1 54.8185 242.8412)" display="inline" fill="#808184" font-family="'Lato-Regular'" font-size="9px">r</text>
				
					<text transform="matrix(1 0 0 1 58.4455 242.8412)" display="inline" fill="#808184" font-family="'Lato-Regular'" font-size="9px"> </text>
				
					<text transform="matrix(1 0 0 1 60.1828 242.8412)" display="inline" fill="#808184" font-family="'Lato-Regular'" font-size="9px">o</text>
				
					<text transform="matrix(1 0 0 1 65.1867 242.8412)" display="inline" fill="#808184" font-family="'Lato-Regular'" font-size="9px">f</text>
				
					<text transform="matrix(1 0 0 1 68.2199 242.8412)" display="inline" fill="#808184" font-family="'Lato-Regular'" font-size="9px"> </text>
				
					<text transform="matrix(1 0 0 1 69.9572 242.8412)" display="inline" fill="#808184" font-family="'Lato-Regular'" font-size="9px">p</text>
				
					<text transform="matrix(1 0 0 1 74.925 242.8412)" display="inline" fill="#808184" font-family="'Lato-Regular'" font-size="9px">e</text>
				
					<text transform="matrix(1 0 0 1 79.6408 242.8412)" display="inline" fill="#808184" font-family="'Lato-Regular'" font-size="9px">o</text>
				
					<text transform="matrix(1 0 0 1 84.6447 242.8412)" display="inline" fill="#808184" font-family="'Lato-Regular'" font-size="9px">p</text>
				
					<text transform="matrix(1 0 0 1 89.6125 242.8412)" display="inline" fill="#808184" font-family="'Lato-Regular'" font-size="9px">l</text>
				
					<text transform="matrix(1 0 0 1 91.9162 242.8412)" display="inline" fill="#808184" font-family="'Lato-Regular'" font-size="9px">e</text>
				
					<text transform="matrix(1 0 0 1 96.632 242.8412)" display="inline" fill="#808184" font-family="'Lato-Regular'" font-size="9px"> </text>
				
					<text transform="matrix(1 0 0 1 98.3693 242.8412)" display="inline" fill="#808184" font-family="'Lato-Regular'" font-size="9px">w</text>
				
					<text transform="matrix(1 0 0 1 105.2629 242.8412)" display="inline" fill="#808184" font-family="'Lato-Regular'" font-size="9px">i</text>
				
					<text transform="matrix(1 0 0 1 107.5666 242.8412)" display="inline" fill="#808184" font-family="'Lato-Regular'" font-size="9px">t</text>
				
					<text transform="matrix(1 0 0 1 110.924 242.8412)" display="inline" fill="#808184" font-family="'Lato-Regular'" font-size="9px">h</text>
				
					<text transform="matrix(1 0 0 1 115.9279 242.8412)" display="inline" fill="#808184" font-family="'Lato-Regular'" font-size="9px"> </text>
				
					<text transform="matrix(1 0 0 1 117.6652 242.8412)" display="inline" fill="#808184" font-family="'Lato-Regular'" font-size="9px">r</text>
				
					<text transform="matrix(1 0 0 1 121.1389 242.8412)" display="inline" fill="#808184" font-family="'Lato-Regular'" font-size="9px">e</text>
				
					<text transform="matrix(1 0 0 1 125.8547 242.8412)" display="inline" fill="#808184" font-family="'Lato-Regular'" font-size="9px">d</text>
				
					<text transform="matrix(1 0 0 1 130.8859 242.8412)" display="inline" fill="#808184" font-family="'Lato-Regular'" font-size="9px">u</text>
				
					<text transform="matrix(1 0 0 1 135.8898 242.8412)" display="inline" fill="#808184" font-family="'Lato-Regular'" font-size="9px">c</text>
				
					<text transform="matrix(1 0 0 1 140.0119 242.8412)" display="inline" fill="#808184" font-family="'Lato-Regular'" font-size="9px">e</text>
				
					<text transform="matrix(1 0 0 1 144.7277 242.8412)" display="inline" fill="#808184" font-family="'Lato-Regular'" font-size="9px">d</text>
				
					<text transform="matrix(1 0 0 1 149.758 242.8412)" display="inline" fill="#808184" font-family="'Lato-Regular'" font-size="9px"> </text>
				
					<text transform="matrix(1 0 0 1 151.4953 242.8412)" display="inline" fill="#808184" font-family="'Lato-Regular'" font-size="9px">p</text>
				
					<text transform="matrix(1 0 0 1 156.4631 242.8412)" display="inline" fill="#808184" font-family="'Lato-Regular'" font-size="9px">r</text>
				
					<text transform="matrix(1 0 0 1 159.9377 242.8412)" display="inline" fill="#808184" font-family="'Lato-Regular'" font-size="9px">o</text>
				
					<text transform="matrix(1 0 0 1 164.9416 242.8412)" display="inline" fill="#808184" font-family="'Lato-Regular'" font-size="9px">b</text>
				
					<text transform="matrix(1 0 0 1 169.9719 242.8412)" display="inline" fill="#808184" font-family="'Lato-Regular'" font-size="9px">a</text>
				
					<text transform="matrix(1 0 0 1 174.5353 242.8412)" display="inline" fill="#808184" font-family="'Lato-Regular'" font-size="9px">t</text>
				
					<text transform="matrix(1 0 0 1 177.8918 242.8412)" display="inline" fill="#808184" font-family="'Lato-Regular'" font-size="9px">i</text>
				
					<text transform="matrix(1 0 0 1 180.1955 242.8412)" display="inline" fill="#808184" font-family="'Lato-Regular'" font-size="9px">o</text>
				
					<text transform="matrix(1 0 0 1 185.1994 242.8412)" display="inline" fill="#808184" font-family="'Lato-Regular'" font-size="9px">n</text>
			</g>
		</g>
		<g>
			<g display="none">
				
					<text transform="matrix(1 0 0 1 226.7971 241.932)" display="inline" fill="#808184" font-family="'Lato-Regular'" font-size="9px">S</text>
				
					<text transform="matrix(1 0 0 1 231.5666 241.932)" display="inline" fill="#808184" font-family="'Lato-Regular'" font-size="9px">h</text>
				
					<text transform="matrix(1 0 0 1 236.5715 241.932)" display="inline" fill="#808184" font-family="'Lato-Regular'" font-size="9px">a</text>
				
					<text transform="matrix(1 0 0 1 241.134 241.932)" display="inline" fill="#808184" font-family="'Lato-Regular'" font-size="9px">r</text>
				
					<text transform="matrix(1 0 0 1 244.6076 241.932)" display="inline" fill="#808184" font-family="'Lato-Regular'" font-size="9px">e</text>
				
					<text transform="matrix(1 0 0 1 249.3234 241.932)" display="inline" fill="#808184" font-family="'Lato-Regular'" font-size="9px"> </text>
				
					<text transform="matrix(1 0 0 1 251.0607 241.932)" display="inline" fill="#808184" font-family="'Lato-Regular'" font-size="9px">o</text>
				
					<text transform="matrix(1 0 0 1 256.0646 241.932)" display="inline" fill="#808184" font-family="'Lato-Regular'" font-size="9px">f</text>
				
					<text transform="matrix(1 0 0 1 259.0978 241.932)" display="inline" fill="#808184" font-family="'Lato-Regular'" font-size="9px"> </text>
				
					<text transform="matrix(1 0 0 1 260.8342 241.932)" display="inline" fill="#808184" font-family="'Lato-Regular'" font-size="9px">A</text>
				
					<text transform="matrix(1 0 0 1 266.9543 241.932)" display="inline" fill="#808184" font-family="'Lato-Regular'" font-size="9px">D</text>
				
					<text transform="matrix(1 0 0 1 273.7316 241.932)" display="inline" fill="#808184" font-family="'Lato-Regular'" font-size="9px">P</text>
				
					<text transform="matrix(1 0 0 1 279.2307 241.932)" display="inline" fill="#808184" font-family="'Lato-Regular'" font-size="9px"> </text>
				
					<text transform="matrix(1 0 0 1 280.967 241.932)" display="inline" fill="#808184" font-family="'Lato-Regular'" font-size="9px">d</text>
				
					<text transform="matrix(1 0 0 1 285.9982 241.932)" display="inline" fill="#808184" font-family="'Lato-Regular'" font-size="9px">r</text>
				
					<text transform="matrix(1 0 0 1 289.4719 241.932)" display="inline" fill="#808184" font-family="'Lato-Regular'" font-size="9px">o</text>
				
					<text transform="matrix(1 0 0 1 294.4758 241.932)" display="inline" fill="#808184" font-family="'Lato-Regular'" font-size="9px">p</text>
			</g>
			
				<line fill="none" stroke="#F37E4B" stroke-width="2.2286" stroke-miterlimit="10" x1="212.084" y1="237.968" x2="223.586" y2="237.968"/>
		</g>
		<rect x="361.396" y="27.399" fill="#FFFFFF" width="36.475" height="20.197"/>
	</g>
	<g>
		<g>
			<rect x="12.553" y="493.23" fill-rule="evenodd" fill="#28377A" width="7.777" height="9.657"/>
			<g display="none">
				
					<text transform="matrix(1 0 0 1 25.8752 502.8876)" display="inline" fill="#808184" font-family="'Lato-Regular'" font-size="9px">N</text>
				
					<text transform="matrix(1 0 0 1 32.6789 502.8876)" display="inline" fill="#808184" font-family="'Lato-Regular'" font-size="9px">u</text>
				
					<text transform="matrix(1 0 0 1 37.6828 502.8876)" display="inline" fill="#808184" font-family="'Lato-Regular'" font-size="9px">m</text>
				
					<text transform="matrix(1 0 0 1 45.0724 502.8876)" display="inline" fill="#808184" font-family="'Lato-Regular'" font-size="9px">b</text>
				
					<text transform="matrix(1 0 0 1 50.1027 502.8876)" display="inline" fill="#808184" font-family="'Lato-Regular'" font-size="9px">e</text>
				
					<text transform="matrix(1 0 0 1 54.8185 502.8876)" display="inline" fill="#808184" font-family="'Lato-Regular'" font-size="9px">r</text>
				
					<text transform="matrix(1 0 0 1 58.4455 502.8876)" display="inline" fill="#808184" font-family="'Lato-Regular'" font-size="9px"> </text>
				
					<text transform="matrix(1 0 0 1 60.1828 502.8876)" display="inline" fill="#808184" font-family="'Lato-Regular'" font-size="9px">o</text>
				
					<text transform="matrix(1 0 0 1 65.1867 502.8876)" display="inline" fill="#808184" font-family="'Lato-Regular'" font-size="9px">f</text>
				
					<text transform="matrix(1 0 0 1 68.2199 502.8876)" display="inline" fill="#808184" font-family="'Lato-Regular'" font-size="9px"> </text>
				
					<text transform="matrix(1 0 0 1 69.9572 502.8876)" display="inline" fill="#808184" font-family="'Lato-Regular'" font-size="9px">p</text>
				
					<text transform="matrix(1 0 0 1 74.925 502.8876)" display="inline" fill="#808184" font-family="'Lato-Regular'" font-size="9px">e</text>
				
					<text transform="matrix(1 0 0 1 79.6408 502.8876)" display="inline" fill="#808184" font-family="'Lato-Regular'" font-size="9px">o</text>
				
					<text transform="matrix(1 0 0 1 84.6447 502.8876)" display="inline" fill="#808184" font-family="'Lato-Regular'" font-size="9px">p</text>
				
					<text transform="matrix(1 0 0 1 89.6125 502.8876)" display="inline" fill="#808184" font-family="'Lato-Regular'" font-size="9px">l</text>
				
					<text transform="matrix(1 0 0 1 91.9162 502.8876)" display="inline" fill="#808184" font-family="'Lato-Regular'" font-size="9px">e</text>
				
					<text transform="matrix(1 0 0 1 96.632 502.8876)" display="inline" fill="#808184" font-family="'Lato-Regular'" font-size="9px"> </text>
				
					<text transform="matrix(1 0 0 1 98.3693 502.8876)" display="inline" fill="#808184" font-family="'Lato-Regular'" font-size="9px">w</text>
				
					<text transform="matrix(1 0 0 1 105.2629 502.8876)" display="inline" fill="#808184" font-family="'Lato-Regular'" font-size="9px">i</text>
				
					<text transform="matrix(1 0 0 1 107.5666 502.8876)" display="inline" fill="#808184" font-family="'Lato-Regular'" font-size="9px">t</text>
				
					<text transform="matrix(1 0 0 1 110.924 502.8876)" display="inline" fill="#808184" font-family="'Lato-Regular'" font-size="9px">h</text>
				
					<text transform="matrix(1 0 0 1 115.9279 502.8876)" display="inline" fill="#808184" font-family="'Lato-Regular'" font-size="9px"> </text>
				
					<text transform="matrix(1 0 0 1 117.6652 502.8876)" display="inline" fill="#808184" font-family="'Lato-Regular'" font-size="9px">r</text>
				
					<text transform="matrix(1 0 0 1 121.1389 502.8876)" display="inline" fill="#808184" font-family="'Lato-Regular'" font-size="9px">e</text>
				
					<text transform="matrix(1 0 0 1 125.8547 502.8876)" display="inline" fill="#808184" font-family="'Lato-Regular'" font-size="9px">d</text>
				
					<text transform="matrix(1 0 0 1 130.8859 502.8876)" display="inline" fill="#808184" font-family="'Lato-Regular'" font-size="9px">u</text>
				
					<text transform="matrix(1 0 0 1 135.8898 502.8876)" display="inline" fill="#808184" font-family="'Lato-Regular'" font-size="9px">c</text>
				
					<text transform="matrix(1 0 0 1 140.0119 502.8876)" display="inline" fill="#808184" font-family="'Lato-Regular'" font-size="9px">e</text>
				
					<text transform="matrix(1 0 0 1 144.7277 502.8876)" display="inline" fill="#808184" font-family="'Lato-Regular'" font-size="9px">d</text>
				
					<text transform="matrix(1 0 0 1 149.758 502.8876)" display="inline" fill="#808184" font-family="'Lato-Regular'" font-size="9px"> </text>
				
					<text transform="matrix(1 0 0 1 151.4953 502.8876)" display="inline" fill="#808184" font-family="'Lato-Regular'" font-size="9px">p</text>
				
					<text transform="matrix(1 0 0 1 156.4631 502.8876)" display="inline" fill="#808184" font-family="'Lato-Regular'" font-size="9px">r</text>
				
					<text transform="matrix(1 0 0 1 159.9377 502.8876)" display="inline" fill="#808184" font-family="'Lato-Regular'" font-size="9px">o</text>
				
					<text transform="matrix(1 0 0 1 164.9416 502.8876)" display="inline" fill="#808184" font-family="'Lato-Regular'" font-size="9px">b</text>
				
					<text transform="matrix(1 0 0 1 169.9719 502.8876)" display="inline" fill="#808184" font-family="'Lato-Regular'" font-size="9px">a</text>
				
					<text transform="matrix(1 0 0 1 174.5353 502.8876)" display="inline" fill="#808184" font-family="'Lato-Regular'" font-size="9px">t</text>
				
					<text transform="matrix(1 0 0 1 177.8918 502.8876)" display="inline" fill="#808184" font-family="'Lato-Regular'" font-size="9px">i</text>
				
					<text transform="matrix(1 0 0 1 180.1955 502.8876)" display="inline" fill="#808184" font-family="'Lato-Regular'" font-size="9px">o</text>
				
					<text transform="matrix(1 0 0 1 185.1994 502.8876)" display="inline" fill="#808184" font-family="'Lato-Regular'" font-size="9px">n</text>
			</g>
		</g>
		<g>
			<g display="none">
				
					<text transform="matrix(1 0 0 1 234.1535 501.9784)" display="inline" fill="#808184" font-family="'Lato-Regular'" font-size="9px">S</text>
				
					<text transform="matrix(1 0 0 1 238.923 501.9784)" display="inline" fill="#808184" font-family="'Lato-Regular'" font-size="9px">h</text>
				
					<text transform="matrix(1 0 0 1 243.9279 501.9784)" display="inline" fill="#808184" font-family="'Lato-Regular'" font-size="9px">a</text>
				
					<text transform="matrix(1 0 0 1 248.4904 501.9784)" display="inline" fill="#808184" font-family="'Lato-Regular'" font-size="9px">r</text>
				
					<text transform="matrix(1 0 0 1 251.9641 501.9784)" display="inline" fill="#808184" font-family="'Lato-Regular'" font-size="9px">e</text>
				
					<text transform="matrix(1 0 0 1 256.6799 501.9784)" display="inline" fill="#808184" font-family="'Lato-Regular'" font-size="9px"> </text>
				
					<text transform="matrix(1 0 0 1 258.4172 501.9784)" display="inline" fill="#808184" font-family="'Lato-Regular'" font-size="9px">o</text>
				
					<text transform="matrix(1 0 0 1 263.4211 501.9784)" display="inline" fill="#808184" font-family="'Lato-Regular'" font-size="9px">f</text>
				
					<text transform="matrix(1 0 0 1 266.4543 501.9784)" display="inline" fill="#808184" font-family="'Lato-Regular'" font-size="9px"> </text>
				
					<text transform="matrix(1 0 0 1 268.1906 501.9784)" display="inline" fill="#808184" font-family="'Lato-Regular'" font-size="9px">A</text>
				
					<text transform="matrix(1 0 0 1 274.3107 501.9784)" display="inline" fill="#808184" font-family="'Lato-Regular'" font-size="9px">D</text>
				
					<text transform="matrix(1 0 0 1 281.0881 501.9784)" display="inline" fill="#808184" font-family="'Lato-Regular'" font-size="9px">P</text>
				
					<text transform="matrix(1 0 0 1 286.5871 501.9784)" display="inline" fill="#808184" font-family="'Lato-Regular'" font-size="9px"> </text>
				
					<text transform="matrix(1 0 0 1 288.3234 501.9784)" display="inline" fill="#808184" font-family="'Lato-Regular'" font-size="9px">d</text>
				
					<text transform="matrix(1 0 0 1 293.3547 501.9784)" display="inline" fill="#808184" font-family="'Lato-Regular'" font-size="9px">r</text>
				
					<text transform="matrix(1 0 0 1 296.8283 501.9784)" display="inline" fill="#808184" font-family="'Lato-Regular'" font-size="9px">o</text>
				
					<text transform="matrix(1 0 0 1 301.8322 501.9784)" display="inline" fill="#808184" font-family="'Lato-Regular'" font-size="9px">p</text>
			</g>
			
				<line fill="none" stroke="#F37E4B" stroke-width="2.2286" stroke-miterlimit="10" x1="219.44" y1="498.015" x2="230.943" y2="498.015"/>
		</g>
		
			<line fill="none" stroke="#808184" stroke-width="0.2451" stroke-linejoin="round" stroke-miterlimit="10" x1="63.053" y1="296.558" x2="421.194" y2="296.558"/>
		
			<line fill="none" stroke="#808184" stroke-width="0.2451" stroke-linejoin="round" stroke-miterlimit="10" x1="63.053" y1="335.256" x2="421.194" y2="335.256"/>
		
			<line fill="none" stroke="#808184" stroke-width="0.2451" stroke-linejoin="round" stroke-miterlimit="10" x1="63.053" y1="373.954" x2="421.194" y2="373.954"/>
		
			<line fill="none" stroke="#808184" stroke-width="0.2451" stroke-linejoin="round" stroke-miterlimit="10" x1="63.053" y1="412.652" x2="421.194" y2="412.652"/>
		
			<line fill="none" stroke="#808184" stroke-width="0.2451" stroke-linejoin="round" stroke-miterlimit="10" x1="63.053" y1="451.349" x2="421.194" y2="451.349"/>
		<rect x="347.389" y="412.251" fill="#28377A" width="59.289" height="38.564"/>
		<g>
			<rect x="257.448" y="386.542" fill="#28377A" width="59.289" height="64.272"/>
			<rect x="167.508" y="365.12" fill="#28377A" width="59.289" height="85.696"/>
		</g>
		<rect x="77.57" y="292.278" fill="#28377A" width="59.289" height="158.538"/>
		<g>
			
				<text transform="matrix(1 0 0 1 425.6994 377.0409)" display="none" fill="#231F20" font-family="'Lato-Regular'" font-size="9px">8%</text>
		</g>
		<g>
			
				<text transform="matrix(1 0 0 1 425.6994 338.3427)" display="none" fill="#231F20" font-family="'Lato-Regular'" font-size="9px">12%</text>
		</g>
		<g>
			
				<text transform="matrix(1 0 0 1 425.6994 415.7382)" display="none" fill="#231F20" font-family="'Lato-Regular'" font-size="9px">4%</text>
		</g>
		<rect x="360.823" y="282.108" fill="#FFFFFF" width="36.4" height="20.34"/>
		
			<polyline fill="none" stroke="#F37E4B" stroke-width="2" stroke-linecap="round" stroke-linejoin="round" stroke-miterlimit="10" points="
			107.214,386.542 197.154,357.014 287.093,341.579 377.033,314.363 		"/>
	</g>
</g>
<style type="text/css">
#g-example-large-img rect, #g-example-large-img circle, #g-example-large-img path, #g-example-large-img line, #g-example-large-img polyline { vector-effect: non-scaling-stroke; }
</style>
</svg>

