<?xml version="1.0" encoding="utf-8"?>
<!-- Generator: Adobe Illustrator 23.0.1, SVG Export Plug-In . SVG Version: 6.00 Build 0)  -->
<svg version="1.2" baseProfile="tiny" id="g-example-dynamic-img" xmlns="http://www.w3.org/2000/svg" xmlns:xlink="http://www.w3.org/1999/xlink"
	 x="0px" y="0px" viewBox="0 0 366 488.768" xml:space="preserve">
<g>
	
		<line fill="none" stroke="#808184" stroke-width="0.2451" stroke-linejoin="round" stroke-miterlimit="10" x1="57.222" y1="41.622" x2="317.151" y2="41.622"/>
	
		<line fill="none" stroke="#808184" stroke-width="0.2451" stroke-linejoin="round" stroke-miterlimit="10" x1="57.222" y1="80.982" x2="317.151" y2="80.982"/>
	
		<line fill="none" stroke="#808184" stroke-width="0.2451" stroke-linejoin="round" stroke-miterlimit="10" x1="57.222" y1="121.467" x2="317.151" y2="121.467"/>
	<rect x="263.484" y="110.783" fill="#28377A" width="43.03" height="49.481"/>
	<g>
		<rect x="198.729" y="114.156" fill="#28377A" width="43.03" height="46.107"/>
		<rect x="133.52" y="92.79" fill="#28377A" width="43.03" height="67.475"/>
	</g>
	<rect x="68.312" y="59.053" fill="#28377A" width="43.03" height="101.211"/>
	
		<line fill="none" stroke="#808184" stroke-width="0.2451" stroke-linejoin="round" stroke-miterlimit="10" x1="57.222" y1="160.264" x2="317.151" y2="160.264"/>
	
		<polyline fill="none" stroke="#F37E4B" stroke-width="2.2286" stroke-linecap="round" stroke-linejoin="round" stroke-miterlimit="10" points="
		89.374,131.025 154.582,108.534 219.792,100.662 284.999,52.305 	"/>
	<rect x="21.305" y="203.322" fill-rule="evenodd" fill="#28377A" width="5.633" height="6.994"/>
	
		<line fill="none" stroke="#F37E4B" stroke-width="2.2286" stroke-miterlimit="10" x1="20.297" y1="225.73" x2="28.628" y2="225.73"/>
	<rect x="274.578" y="34.851" fill="#FFFFFF" width="26.418" height="14.628"/>
	
		<line fill="none" stroke="#808184" stroke-width="0.2451" stroke-linejoin="round" stroke-miterlimit="10" x1="70.505" y1="290.307" x2="316.568" y2="290.307"/>
	
		<line fill="none" stroke="#808184" stroke-width="0.2451" stroke-linejoin="round" stroke-miterlimit="10" x1="70.505" y1="319.967" x2="316.568" y2="319.967"/>
	
		<line fill="none" stroke="#808184" stroke-width="0.2451" stroke-linejoin="round" stroke-miterlimit="10" x1="70.505" y1="349.628" x2="316.568" y2="349.628"/>
	
		<line fill="none" stroke="#808184" stroke-width="0.2451" stroke-linejoin="round" stroke-miterlimit="10" x1="70.505" y1="379.289" x2="316.568" y2="379.289"/>
	
		<line fill="none" stroke="#808184" stroke-width="0.2451" stroke-linejoin="round" stroke-miterlimit="10" x1="70.505" y1="408.949" x2="316.568" y2="408.949"/>
	<rect x="265.859" y="378.982" fill="#28377A" width="40.735" height="29.558"/>
	<rect x="204.065" y="359.277" fill="#28377A" width="40.735" height="49.263"/>
	<rect x="142.271" y="342.857" fill="#28377A" width="40.735" height="65.683"/>
	<rect x="80.478" y="287.026" fill="#28377A" width="40.735" height="121.514"/>
	<rect x="20.722" y="452.007" fill-rule="evenodd" fill="#28377A" width="5.633" height="6.994"/>
	
		<line fill="none" stroke="#F37E4B" stroke-width="2.2286" stroke-miterlimit="10" x1="19.714" y1="474.415" x2="28.045" y2="474.415"/>
	<rect x="276.266" y="283.536" fill="#FFFFFF" width="25.009" height="14.628"/>
	
		<polyline fill="none" stroke="#F37E4B" stroke-width="2" stroke-linecap="round" stroke-linejoin="round" stroke-miterlimit="10" points="
		100.846,359.277 162.639,336.644 224.433,324.814 286.226,303.953 	"/>
	<g>
		<text transform="matrix(0 -1 1 0 18.9924 -74.5606)" fill="#808184" font-family="'Lato-Regular'" font-size="9px">P</text>
		<text transform="matrix(0 -1 1 0 18.9924 -79.8165)" fill="#808184" font-family="'Lato-Regular'" font-size="9px">e</text>
		<text transform="matrix(0 -1 1 0 18.9924 -84.5323)" fill="#808184" font-family="'Lato-Regular'" font-size="9px">o</text>
		<text transform="matrix(0 -1 1 0 18.9924 -89.5362)" fill="#808184" font-family="'Lato-Regular'" font-size="9px">p</text>
		<text transform="matrix(0 -1 1 0 18.9924 -94.5045)" fill="#808184" font-family="'Lato-Regular'" font-size="9px">l</text>
		<text transform="matrix(0 -1 1 0 18.9924 -96.8082)" fill="#808184" font-family="'Lato-Regular'" font-size="9px">e</text>
		<text transform="matrix(0 -1 1 0 18.9924 -101.524)" fill="#808184" font-family="'Lato-Regular'" font-size="9px"> </text>
		<text transform="matrix(0 -1 1 0 18.9924 -103.2613)" fill="#808184" font-family="'Lato-Regular'" font-size="9px">w</text>
		<text transform="matrix(0 -1 1 0 18.9924 -110.1549)" fill="#808184" font-family="'Lato-Regular'" font-size="9px">i</text>
		<text transform="matrix(0 -1 1 0 18.9924 -112.4591)" fill="#808184" font-family="'Lato-Regular'" font-size="9px">t</text>
		<text transform="matrix(0 -1 1 0 18.9924 -115.816)" fill="#808184" font-family="'Lato-Regular'" font-size="9px">h</text>
		<text transform="matrix(0 -1 1 0 18.9924 -120.8199)" fill="#808184" font-family="'Lato-Regular'" font-size="9px"> </text>
		<text transform="matrix(0 -1 1 0 18.9924 -122.5567)" fill="#808184" font-family="'Lato-Regular'" font-size="9px">r</text>
		<text transform="matrix(0 -1 1 0 18.9924 -126.0221)" fill="#808184" font-family="'Lato-Regular'" font-size="9px">e</text>
		<text transform="matrix(0 -1 1 0 18.9924 -130.7379)" fill="#808184" font-family="'Lato-Regular'" font-size="9px">d</text>
		<text transform="matrix(0 -1 1 0 18.9924 -135.7686)" fill="#808184" font-family="'Lato-Regular'" font-size="9px">u</text>
		<text transform="matrix(0 -1 1 0 18.9924 -140.7726)" fill="#808184" font-family="'Lato-Regular'" font-size="9px">c</text>
		<text transform="matrix(0 -1 1 0 18.9924 -144.9034)" fill="#808184" font-family="'Lato-Regular'" font-size="9px">e</text>
		<text transform="matrix(0 -1 1 0 18.9924 -149.6192)" fill="#808184" font-family="'Lato-Regular'" font-size="9px">d</text>
		<text transform="matrix(0 -1 1 0 18.9924 -154.6505)" fill="#808184" font-family="'Lato-Regular'" font-size="9px"> </text>
		<text transform="matrix(0 -1 1 0 18.9924 -156.3873)" fill="#808184" font-family="'Lato-Regular'" font-size="9px">l</text>
		<text transform="matrix(0 -1 1 0 18.9924 -158.2862)" fill="#808184" font-family="'Lato-Regular'" font-size="9px">e</text>
		<text transform="matrix(0 -1 1 0 18.9924 -162.5973)" fill="#808184" font-family="'Lato-Regular'" font-size="9px">n</text>
		<text transform="matrix(0 -1 1 0 18.9924 -167.1964)" fill="#808184" font-family="'Lato-Regular'" font-size="9px">g</text>
		<text transform="matrix(0 -1 1 0 18.9924 -171.3902)" fill="#808184" font-family="'Lato-Regular'" font-size="9px">t</text>
		<text transform="matrix(0 -1 1 0 18.9924 -174.3419)" fill="#808184" font-family="'Lato-Regular'" font-size="9px">h</text>
		<text transform="matrix(0 -1 1 0 18.9924 -178.941)" fill="#808184" font-family="'Lato-Regular'" font-size="9px"> </text>
		<text transform="matrix(0 -1 1 0 18.9924 -180.273)" fill="#808184" font-family="'Lato-Regular'" font-size="9px">o</text>
		<text transform="matrix(0 -1 1 0 18.9924 -184.8717)" fill="#808184" font-family="'Lato-Regular'" font-size="9px">f</text>
		<text transform="matrix(0 -1 1 0 18.9924 -187.4996)" fill="#808184" font-family="'Lato-Regular'" font-size="9px"> </text>
		<text transform="matrix(0 -1 1 0 18.9924 -188.8316)" fill="#808184" font-family="'Lato-Regular'" font-size="9px">s</text>
		<text transform="matrix(0 -1 1 0 18.9924 -192.3326)" fill="#808184" font-family="'Lato-Regular'" font-size="9px">u</text>
		<text transform="matrix(0 -1 1 0 18.9924 -196.9317)" fill="#808184" font-family="'Lato-Regular'" font-size="9px">p</text>
		<text transform="matrix(0 -1 1 0 18.9924 -201.4947)" fill="#808184" font-family="'Lato-Regular'" font-size="9px">e</text>
		<text transform="matrix(0 -1 1 0 18.9924 -205.8053)" fill="#808184" font-family="'Lato-Regular'" font-size="9px">r</text>
		<text transform="matrix(0 -1 1 0 18.9924 -209.0274)" fill="#808184" font-family="'Lato-Regular'" font-size="9px">v</text>
		<text transform="matrix(0 -1 1 0 18.9924 -213.2301)" fill="#808184" font-family="'Lato-Regular'" font-size="9px">i</text>
		<text transform="matrix(0 -1 1 0 18.9924 -215.1295)" fill="#808184" font-family="'Lato-Regular'" font-size="9px">s</text>
		<text transform="matrix(0 -1 1 0 18.9924 -218.63)" fill="#808184" font-family="'Lato-Regular'" font-size="9px">i</text>
		<text transform="matrix(0 -1 1 0 18.9924 -220.5294)" fill="#808184" font-family="'Lato-Regular'" font-size="9px">o</text>
		<text transform="matrix(0 -1 1 0 18.9924 -225.128)" fill="#808184" font-family="'Lato-Regular'" font-size="9px">n</text>
		<text transform="matrix(0 -1 1 0 459.3078 -134.256)" fill="#808184" font-family="'Lato-Regular'" font-size="9px">%</text>
		<text transform="matrix(0 -1 1 0 459.3078 -141.3297)" fill="#808184" font-family="'Lato-Regular'" font-size="9px"> </text>
		<text transform="matrix(0 -1 1 0 459.3078 -143.067)" fill="#808184" font-family="'Lato-Regular'" font-size="9px">d</text>
		<text transform="matrix(0 -1 1 0 459.3078 -148.0977)" fill="#808184" font-family="'Lato-Regular'" font-size="9px">r</text>
		<text transform="matrix(0 -1 1 0 459.3078 -151.5719)" fill="#808184" font-family="'Lato-Regular'" font-size="9px">o</text>
		<text transform="matrix(0 -1 1 0 459.3078 -156.5758)" fill="#808184" font-family="'Lato-Regular'" font-size="9px">p</text>
		<text transform="matrix(0 -1 1 0 459.3078 -161.5435)" fill="#808184" font-family="'Lato-Regular'" font-size="9px"> </text>
		<text transform="matrix(0 -1 1 0 459.3078 -163.2804)" fill="#808184" font-family="'Lato-Regular'" font-size="9px">i</text>
		<text transform="matrix(0 -1 1 0 459.3078 -165.5846)" fill="#808184" font-family="'Lato-Regular'" font-size="9px">n</text>
		<text transform="matrix(0 -1 1 0 459.3078 -170.5885)" fill="#808184" font-family="'Lato-Regular'" font-size="9px"> </text>
		<text transform="matrix(0 -1 1 0 459.3078 -172.3253)" fill="#808184" font-family="'Lato-Regular'" font-size="9px">A</text>
		<text transform="matrix(0 -1 1 0 459.3078 -178.4454)" fill="#808184" font-family="'Lato-Regular'" font-size="9px">D</text>
		<text transform="matrix(0 -1 1 0 459.3078 -185.2223)" fill="#808184" font-family="'Lato-Regular'" font-size="9px">P</text>
		<g>
			<rect x="12.553" y="-24.416" fill-rule="evenodd" fill="#28377A" width="7.777" height="9.657"/>
			<text transform="matrix(1 0 0 1 25.8752 -14.7584)" fill="#808184" font-family="'Lato-Regular'" font-size="9px">N</text>
			<text transform="matrix(1 0 0 1 32.6789 -14.7584)" fill="#808184" font-family="'Lato-Regular'" font-size="9px">u</text>
			<text transform="matrix(1 0 0 1 37.6828 -14.7584)" fill="#808184" font-family="'Lato-Regular'" font-size="9px">m</text>
			<text transform="matrix(1 0 0 1 45.0724 -14.7584)" fill="#808184" font-family="'Lato-Regular'" font-size="9px">b</text>
			<text transform="matrix(1 0 0 1 50.1027 -14.7584)" fill="#808184" font-family="'Lato-Regular'" font-size="9px">e</text>
			<text transform="matrix(1 0 0 1 54.8185 -14.7584)" fill="#808184" font-family="'Lato-Regular'" font-size="9px">r</text>
			<text transform="matrix(1 0 0 1 58.4455 -14.7584)" fill="#808184" font-family="'Lato-Regular'" font-size="9px"> </text>
			<text transform="matrix(1 0 0 1 60.1828 -14.7584)" fill="#808184" font-family="'Lato-Regular'" font-size="9px">o</text>
			<text transform="matrix(1 0 0 1 65.1867 -14.7584)" fill="#808184" font-family="'Lato-Regular'" font-size="9px">f</text>
			<text transform="matrix(1 0 0 1 68.2199 -14.7584)" fill="#808184" font-family="'Lato-Regular'" font-size="9px"> </text>
			<text transform="matrix(1 0 0 1 69.9572 -14.7584)" fill="#808184" font-family="'Lato-Regular'" font-size="9px">p</text>
			<text transform="matrix(1 0 0 1 74.925 -14.7584)" fill="#808184" font-family="'Lato-Regular'" font-size="9px">e</text>
			<text transform="matrix(1 0 0 1 79.6408 -14.7584)" fill="#808184" font-family="'Lato-Regular'" font-size="9px">o</text>
			<text transform="matrix(1 0 0 1 84.6447 -14.7584)" fill="#808184" font-family="'Lato-Regular'" font-size="9px">p</text>
			<text transform="matrix(1 0 0 1 89.6125 -14.7584)" fill="#808184" font-family="'Lato-Regular'" font-size="9px">l</text>
			<text transform="matrix(1 0 0 1 91.9162 -14.7584)" fill="#808184" font-family="'Lato-Regular'" font-size="9px">e</text>
			<text transform="matrix(1 0 0 1 96.632 -14.7584)" fill="#808184" font-family="'Lato-Regular'" font-size="9px"> </text>
			<text transform="matrix(1 0 0 1 98.3693 -14.7584)" fill="#808184" font-family="'Lato-Regular'" font-size="9px">w</text>
			<text transform="matrix(1 0 0 1 105.2629 -14.7584)" fill="#808184" font-family="'Lato-Regular'" font-size="9px">i</text>
			<text transform="matrix(1 0 0 1 107.5666 -14.7584)" fill="#808184" font-family="'Lato-Regular'" font-size="9px">t</text>
			<text transform="matrix(1 0 0 1 110.924 -14.7584)" fill="#808184" font-family="'Lato-Regular'" font-size="9px">h</text>
			<text transform="matrix(1 0 0 1 115.9279 -14.7584)" fill="#808184" font-family="'Lato-Regular'" font-size="9px"> </text>
			<text transform="matrix(1 0 0 1 117.6652 -14.7584)" fill="#808184" font-family="'Lato-Regular'" font-size="9px">r</text>
			<text transform="matrix(1 0 0 1 121.1389 -14.7584)" fill="#808184" font-family="'Lato-Regular'" font-size="9px">e</text>
			<text transform="matrix(1 0 0 1 125.8547 -14.7584)" fill="#808184" font-family="'Lato-Regular'" font-size="9px">d</text>
			<text transform="matrix(1 0 0 1 130.8859 -14.7584)" fill="#808184" font-family="'Lato-Regular'" font-size="9px">u</text>
			<text transform="matrix(1 0 0 1 135.8898 -14.7584)" fill="#808184" font-family="'Lato-Regular'" font-size="9px">c</text>
			<text transform="matrix(1 0 0 1 140.0119 -14.7584)" fill="#808184" font-family="'Lato-Regular'" font-size="9px">e</text>
			<text transform="matrix(1 0 0 1 144.7277 -14.7584)" fill="#808184" font-family="'Lato-Regular'" font-size="9px">d</text>
			<text transform="matrix(1 0 0 1 149.758 -14.7584)" fill="#808184" font-family="'Lato-Regular'" font-size="9px"> </text>
			<text transform="matrix(1 0 0 1 151.4953 -14.7584)" fill="#808184" font-family="'Lato-Regular'" font-size="9px">p</text>
			<text transform="matrix(1 0 0 1 156.4631 -14.7584)" fill="#808184" font-family="'Lato-Regular'" font-size="9px">r</text>
			<text transform="matrix(1 0 0 1 159.9377 -14.7584)" fill="#808184" font-family="'Lato-Regular'" font-size="9px">o</text>
			<text transform="matrix(1 0 0 1 164.9416 -14.7584)" fill="#808184" font-family="'Lato-Regular'" font-size="9px">b</text>
			<text transform="matrix(1 0 0 1 169.9719 -14.7584)" fill="#808184" font-family="'Lato-Regular'" font-size="9px">a</text>
			<text transform="matrix(1 0 0 1 174.5353 -14.7584)" fill="#808184" font-family="'Lato-Regular'" font-size="9px">t</text>
			<text transform="matrix(1 0 0 1 177.8918 -14.7584)" fill="#808184" font-family="'Lato-Regular'" font-size="9px">i</text>
			<text transform="matrix(1 0 0 1 180.1955 -14.7584)" fill="#808184" font-family="'Lato-Regular'" font-size="9px">o</text>
			<text transform="matrix(1 0 0 1 185.1994 -14.7584)" fill="#808184" font-family="'Lato-Regular'" font-size="9px">n</text>
		</g>
		<g>
			<text transform="matrix(1 0 0 1 234.1535 -15.6676)" fill="#808184" font-family="'Lato-Regular'" font-size="9px">S</text>
			<text transform="matrix(1 0 0 1 238.923 -15.6676)" fill="#808184" font-family="'Lato-Regular'" font-size="9px">h</text>
			<text transform="matrix(1 0 0 1 243.9279 -15.6676)" fill="#808184" font-family="'Lato-Regular'" font-size="9px">a</text>
			<text transform="matrix(1 0 0 1 248.4904 -15.6676)" fill="#808184" font-family="'Lato-Regular'" font-size="9px">r</text>
			<text transform="matrix(1 0 0 1 251.9641 -15.6676)" fill="#808184" font-family="'Lato-Regular'" font-size="9px">e</text>
			<text transform="matrix(1 0 0 1 256.6799 -15.6676)" fill="#808184" font-family="'Lato-Regular'" font-size="9px"> </text>
			<text transform="matrix(1 0 0 1 258.4172 -15.6676)" fill="#808184" font-family="'Lato-Regular'" font-size="9px">o</text>
			<text transform="matrix(1 0 0 1 263.4211 -15.6676)" fill="#808184" font-family="'Lato-Regular'" font-size="9px">f</text>
			<text transform="matrix(1 0 0 1 266.4543 -15.6676)" fill="#808184" font-family="'Lato-Regular'" font-size="9px"> </text>
			<text transform="matrix(1 0 0 1 268.1906 -15.6676)" fill="#808184" font-family="'Lato-Regular'" font-size="9px">A</text>
			<text transform="matrix(1 0 0 1 274.3107 -15.6676)" fill="#808184" font-family="'Lato-Regular'" font-size="9px">D</text>
			<text transform="matrix(1 0 0 1 281.0881 -15.6676)" fill="#808184" font-family="'Lato-Regular'" font-size="9px">P</text>
			<text transform="matrix(1 0 0 1 286.5871 -15.6676)" fill="#808184" font-family="'Lato-Regular'" font-size="9px"> </text>
			<text transform="matrix(1 0 0 1 288.3234 -15.6676)" fill="#808184" font-family="'Lato-Regular'" font-size="9px">d</text>
			<text transform="matrix(1 0 0 1 293.3547 -15.6676)" fill="#808184" font-family="'Lato-Regular'" font-size="9px">r</text>
			<text transform="matrix(1 0 0 1 296.8283 -15.6676)" fill="#808184" font-family="'Lato-Regular'" font-size="9px">o</text>
			<text transform="matrix(1 0 0 1 301.8322 -15.6676)" fill="#808184" font-family="'Lato-Regular'" font-size="9px">p</text>
			
				<line fill="none" stroke="#F37E4B" stroke-width="2.2286" stroke-miterlimit="10" x1="219.44" y1="-19.631" x2="230.943" y2="-19.631"/>
		</g>
		<text transform="matrix(1 0 0 1 155.0568 -32.1334)" fill="#808184" font-family="'Lato-Regular'" font-size="9px">Years term could have been safely reduced</text>
		
			<line fill="none" stroke="#808184" stroke-width="0.2451" stroke-linejoin="round" stroke-miterlimit="10" x1="63.053" y1="-221.088" x2="421.194" y2="-221.088"/>
		
			<line fill="none" stroke="#808184" stroke-width="0.2451" stroke-linejoin="round" stroke-miterlimit="10" x1="63.053" y1="-182.39" x2="421.194" y2="-182.39"/>
		
			<line fill="none" stroke="#808184" stroke-width="0.2451" stroke-linejoin="round" stroke-miterlimit="10" x1="63.053" y1="-143.692" x2="421.194" y2="-143.692"/>
		
			<line fill="none" stroke="#808184" stroke-width="0.2451" stroke-linejoin="round" stroke-miterlimit="10" x1="63.053" y1="-104.994" x2="421.194" y2="-104.994"/>
		
			<line fill="none" stroke="#808184" stroke-width="0.2451" stroke-linejoin="round" stroke-miterlimit="10" x1="63.053" y1="-66.297" x2="421.194" y2="-66.297"/>
		<rect x="347.389" y="-105.395" fill="#28377A" width="59.289" height="38.564"/>
		<g>
			<rect x="257.448" y="-131.104" fill="#28377A" width="59.289" height="64.272"/>
			<rect x="167.508" y="-152.526" fill="#28377A" width="59.289" height="85.696"/>
		</g>
		<rect x="77.57" y="-225.368" fill="#28377A" width="59.289" height="158.538"/>
		<text transform="matrix(1 0 0 1 52.2355 -63.2105)" fill="#231F20" font-family="'Lato-Regular'" font-size="9px">0 </text>
		<text transform="matrix(1 0 0 1 31.1848 -218.0011)" fill="#231F20" font-family="'Lato-Regular'" font-size="9px">16,000</text>
		<text transform="matrix(1 0 0 1 31.1848 -179.3028)" fill="#231F20" font-family="'Lato-Regular'" font-size="9px">12,000</text>
		<text transform="matrix(1 0 0 1 36.4035 -140.6056)" fill="#231F20" font-family="'Lato-Regular'" font-size="9px">8,000</text>
		<text transform="matrix(1 0 0 1 36.4035 -101.9078)" fill="#231F20" font-family="'Lato-Regular'" font-size="9px">4,000</text>
		<text transform="matrix(1 0 0 1 427.0598 -63.2105)" fill="#231F20" font-family="'Lato-Regular'" font-size="9px">0% </text>
		<text transform="matrix(1 0 0 1 425.6994 -218.0011)" fill="#231F20" font-family="'Lato-Regular'" font-size="9px">16%</text>
		<g>
			<text transform="matrix(1 0 0 1 425.6994 -140.6051)" fill="#231F20" font-family="'Lato-Regular'" font-size="9px">8%</text>
		</g>
		<g>
			<text transform="matrix(1 0 0 1 425.6994 -179.3033)" fill="#231F20" font-family="'Lato-Regular'" font-size="9px">12%</text>
		</g>
		<g>
			<text transform="matrix(1 0 0 1 425.6994 -101.9078)" fill="#231F20" font-family="'Lato-Regular'" font-size="9px">4%</text>
		</g>
		<text transform="matrix(1 0 0 1 83.091 -49.1295)" fill="#231F20" font-family="'Lato-Regular'" font-size="9px">More than 1</text>
		<text transform="matrix(1 0 0 1 167.8996 -49.1295)" fill="#231F20" font-family="'Lato-Regular'" font-size="9px">1 to less than 2</text>
		<text transform="matrix(1 0 0 1 257.84 -49.1295)" fill="#231F20" font-family="'Lato-Regular'" font-size="9px">2 to less than 3</text>
		<text transform="matrix(1 0 0 1 358.0031 -49.1295)" fill="#231F20" font-family="'Lato-Regular'" font-size="9px">3 or more</text>
		<text transform="matrix(1 0 0 1 79.2814 -203.2818)" fill="#FFFFFF" font-family="'Lato-Black'" font-size="17.1264px">16,372</text>
		<text transform="matrix(1 0 0 1 176.4191 -131.1031)" fill="#FFFFFF" font-family="'Lato-Black'" font-size="17.1264px">8,829</text>
		<text transform="matrix(1 0 0 1 264.884 -110.3414)" fill="#FFFFFF" font-family="'Lato-Black'" font-size="17.1264px">6,638</text>
		<text transform="matrix(1 0 0 1 354.7258 -89.5914)" fill="#FFFFFF" font-family="'Lato-Black'" font-size="17.1264px">4,032</text>
		<text transform="matrix(1 0 0 1 97.1808 -138.9229)" fill="#F37E4B" font-family="'Lato-Regular'" font-size="9px">7%</text>
		<rect x="360.823" y="-235.538" fill="#FFFFFF" width="36.4" height="20.34"/>
		<text transform="matrix(1 0 0 1 187.2121 -167.1925)" fill="#F37E4B" font-family="'Lato-Regular'" font-size="9px">10%</text>
		<text transform="matrix(1 0 0 1 277.6516 -188.9308)" fill="#F37E4B" font-family="'Lato-Regular'" font-size="9px">12%</text>
		<text transform="matrix(1 0 0 1 369.7873 -218.0011)" fill="#F37E4B" font-family="'Lato-Regular'" font-size="9px">14%</text>
		
			<polyline fill="none" stroke="#F37E4B" stroke-width="2" stroke-linecap="round" stroke-linejoin="round" stroke-miterlimit="10" points="
			107.214,-131.104 197.154,-160.632 287.093,-176.067 377.033,-203.283 		"/>
	</g>
	<text transform="matrix(1 0 0 1 72.8107 78.4037)" fill="#FFFFFF" font-family="'Lato-Black'" font-size="12.5178px">5</text>
	<text transform="matrix(1 0 0 1 79.8332 78.4037)" fill="#FFFFFF" font-family="'Lato-Black'" font-size="12.5178px">,</text>
	<text transform="matrix(1 0 0 1 82.549 78.4037)" fill="#FFFFFF" font-family="'Lato-Black'" font-size="12.5178px">1</text>
	<text transform="matrix(1 0 0 1 89.5715 78.4037)" fill="#FFFFFF" font-family="'Lato-Black'" font-size="12.5178px">0</text>
	<text transform="matrix(1 0 0 1 96.5939 78.4037)" fill="#FFFFFF" font-family="'Lato-Black'" font-size="12.5178px">6</text>
	<text transform="matrix(1 0 0 1 139.7062 128.7797)" fill="#FFFFFF" font-family="'Lato-Black'" font-size="12.5178px">3</text>
	<text transform="matrix(1 0 0 1 146.7287 128.7797)" fill="#FFFFFF" font-family="'Lato-Black'" font-size="12.5178px">,</text>
	<text transform="matrix(1 0 0 1 149.4445 128.7797)" fill="#FFFFFF" font-family="'Lato-Black'" font-size="12.5178px">4</text>
	<text transform="matrix(1 0 0 1 156.467 128.7797)" fill="#FFFFFF" font-family="'Lato-Black'" font-size="12.5178px">0</text>
	<text transform="matrix(1 0 0 1 163.4894 128.7797)" fill="#FFFFFF" font-family="'Lato-Black'" font-size="12.5178px">3</text>
	<text transform="matrix(1 0 0 1 203.9103 133.2719)" fill="#FFFFFF" font-family="'Lato-Black'" font-size="12.5178px">2</text>
	<text transform="matrix(1 0 0 1 210.9328 133.2719)" fill="#FFFFFF" font-family="'Lato-Black'" font-size="12.5178px">,</text>
	<text transform="matrix(1 0 0 1 213.6486 133.2719)" fill="#FFFFFF" font-family="'Lato-Black'" font-size="12.5178px">3</text>
	<text transform="matrix(1 0 0 1 220.6711 133.2719)" fill="#FFFFFF" font-family="'Lato-Black'" font-size="12.5178px">6</text>
	<text transform="matrix(1 0 0 1 227.6935 133.2719)" fill="#FFFFFF" font-family="'Lato-Black'" font-size="12.5178px">7</text>
	<text transform="matrix(1 0 0 1 269.1154 130.474)" fill="#FFFFFF" font-family="'Lato-Black'" font-size="12.5178px">2</text>
	<text transform="matrix(1 0 0 1 276.1379 130.474)" fill="#FFFFFF" font-family="'Lato-Black'" font-size="12.5178px">,</text>
	<text transform="matrix(1 0 0 1 278.8537 130.474)" fill="#FFFFFF" font-family="'Lato-Black'" font-size="12.5178px">4</text>
	<text transform="matrix(1 0 0 1 285.8762 130.474)" fill="#FFFFFF" font-family="'Lato-Black'" font-size="12.5178px">9</text>
	<text transform="matrix(1 0 0 1 292.8986 130.474)" fill="#FFFFFF" font-family="'Lato-Black'" font-size="12.5178px">2</text>
	<text transform="matrix(0.9467 0 0 1 81.8664 304.1643)" fill="#FFFFFF" font-family="'Lato-Black'" font-size="12.5178px">16,372</text>
	<text transform="matrix(1 0 0 1 147.2756 359.6576)" fill="#FFFFFF" font-family="'Lato-Black'" font-size="12.5178px">8,829</text>
	<text transform="matrix(1 0 0 1 208.0549 374.5893)" fill="#FFFFFF" font-family="'Lato-Black'" font-size="12.5178px">6,638</text>
	<text transform="matrix(1 0 0 1 269.7824 395.1361)" fill="#FFFFFF" font-family="'Lato-Black'" font-size="12.5178px">4,032</text>
</g>
<style type="text/css">
#g-example-dynamic-img rect, #g-example-dynamic-img circle, #g-example-dynamic-img path, #g-example-dynamic-img line, #g-example-dynamic-img polyline { vector-effect: non-scaling-stroke; }
</style>
</svg>

