<?xml version="1.0" encoding="utf-8"?>
<!-- Generator: Adobe Illustrator 23.0.1, SVG Export Plug-In . SVG Version: 6.00 Build 0)  -->
<svg version="1.2" baseProfile="tiny" id="g-schematic-override-print-img" xmlns="http://www.w3.org/2000/svg" xmlns:xlink="http://www.w3.org/1999/xlink"
	 x="0px" y="0px" viewBox="0 0 467.996 323.49" xml:space="preserve">
<g>
	<path fill="none" stroke="#2C9C99" stroke-width="1.5651" stroke-linecap="round" stroke-miterlimit="10" d="M289.573,256.4H410.52
		c3.888,0,7.04-2.174,7.04-4.856V191.85"/>
	<g>
		<path fill="none" d="M102.17,142.615l-16.366-8.729l10.779-19.578c0.047-0.085,0.039-0.184-0.022-0.272
			c-0.054-0.079-0.159-0.122-0.268-0.104l-22.998,3.518l-2.321-20.756c-0.012-0.09-0.081-0.182-0.17-0.213
			c-0.099-0.035-0.21-0.009-0.288,0.064l-13.739,13.149L43.709,95.857c-0.098-0.106-0.22-0.091-0.288-0.072
			c-0.074,0.025-0.153,0.112-0.17,0.208l-3.371,20.594l-22.817-4.669c-0.099-0.017-0.205,0.02-0.27,0.102
			c-0.055,0.072-0.066,0.178-0.022,0.27l9.765,20.087L9.745,140.26c-0.052,0.025-0.145,0.088-0.145,0.219
			c-0.004,0.117,0.05,0.204,0.141,0.251l15.917,8.184l-10.725,18.8c-0.052,0.091-0.049,0.184,0.007,0.264
			c0.061,0.09,0.163,0.135,0.261,0.118l23.713-3.249l2.721,21.324c0.012,0.093,0.08,0.18,0.164,0.207
			c0.104,0.038,0.218,0.013,0.292-0.06l13.045-12.878l12.377,13.531c0.056,0.061,0.146,0.09,0.241,0.074l0.117-0.02
			c0.004-0.007,0.078-0.087,0.094-0.181l3.818-21.164l23.516,4.459c0.095,0.017,0.193-0.02,0.249-0.096
			c0.072-0.092,0.078-0.194,0.033-0.286l-9.756-19.312l16.328-7.364c0.078-0.038,0.145-0.133,0.147-0.229
			C102.305,142.754,102.252,142.658,102.17,142.615z"/>
		<path fill="#AFDEDD" d="M102.901,141.232l-14.961-7.979l10.015-18.188c0.334-0.608,0.292-1.344-0.105-1.914
			c-0.383-0.563-1.057-0.859-1.774-0.767l-21.406,3.274l-2.142-19.15c-0.089-0.684-0.561-1.273-1.199-1.499
			c-0.653-0.235-1.375-0.081-1.889,0.403l-12.606,12.065L44.857,94.794c-0.466-0.513-1.181-0.708-1.895-0.505
			c-0.659,0.216-1.14,0.77-1.254,1.448L38.6,114.728l-21.23-4.345c-0.684-0.134-1.373,0.122-1.812,0.676
			c-0.42,0.552-0.497,1.282-0.196,1.91l9.073,18.665l-15.357,7.209c-0.641,0.304-1.041,0.929-1.042,1.605
			c-0.024,0.698,0.351,1.337,0.984,1.669l14.469,7.44l-9.912,17.376c-0.355,0.616-0.324,1.359,0.075,1.931
			c0.388,0.57,1.054,0.868,1.755,0.782l22.156-3.035l2.521,19.759c0.09,0.69,0.57,1.276,1.215,1.49
			c0.66,0.225,1.382,0.066,1.888-0.426l11.893-11.739l11.286,12.338c0.348,0.373,0.834,0.58,1.345,0.58
			c0.096,0,0.193-0.008,0.29-0.022l0.218-0.042c0.668-0.195,1.174-0.761,1.29-1.434l3.537-19.603l21.963,4.164
			c0.688,0.131,1.395-0.146,1.787-0.685c0.426-0.536,0.502-1.29,0.19-1.93l-9.023-17.863l14.855-6.7
			c0.625-0.301,1.027-0.913,1.05-1.595v-0.001C103.889,142.207,103.508,141.549,102.901,141.232z M102.155,143.083l-16.328,7.364
			l9.756,19.312c0.045,0.092,0.04,0.194-0.033,0.286c-0.056,0.076-0.153,0.112-0.249,0.096l-23.516-4.459l-3.818,21.164
			c-0.016,0.094-0.09,0.174-0.094,0.181l-0.117,0.02c-0.095,0.016-0.185-0.014-0.241-0.074l-12.377-13.531l-13.045,12.878
			c-0.074,0.072-0.188,0.098-0.292,0.06c-0.084-0.027-0.151-0.114-0.164-0.207l-2.721-21.324l-23.713,3.249
			c-0.098,0.017-0.2-0.028-0.261-0.118c-0.056-0.08-0.059-0.173-0.007-0.264l10.725-18.8L9.742,140.73
			c-0.091-0.047-0.145-0.134-0.141-0.251c0-0.131,0.092-0.194,0.145-0.219l16.791-7.883l-9.765-20.087
			c-0.044-0.092-0.033-0.198,0.022-0.27c0.065-0.082,0.171-0.118,0.27-0.102l22.817,4.669l3.371-20.594
			c0.017-0.096,0.096-0.184,0.17-0.208c0.067-0.019,0.19-0.034,0.288,0.072l13.067,13.839l13.739-13.149
			c0.078-0.073,0.189-0.099,0.288-0.064c0.089,0.031,0.158,0.123,0.17,0.213l2.321,20.756l22.998-3.518
			c0.109-0.018,0.214,0.025,0.268,0.104c0.061,0.088,0.069,0.187,0.022,0.272l-10.779,19.578l16.366,8.729
			c0.082,0.043,0.135,0.139,0.132,0.238C102.299,142.949,102.232,143.045,102.155,143.083z"/>
	</g>
	<g>
		<path fill="none" d="M416.847,99.933c-22.831,0-41.405,18.51-41.405,41.261s18.574,41.262,41.405,41.262
			c22.832,0,41.407-18.511,41.407-41.262S439.679,99.933,416.847,99.933z"/>
		<path fill="#AFDEDD" d="M416.847,98.367c-23.693,0-42.97,19.212-42.97,42.827s19.276,42.827,42.97,42.827
			c23.695,0,42.972-19.212,42.972-42.827S440.542,98.367,416.847,98.367z M416.847,182.456c-22.831,0-41.405-18.511-41.405-41.262
			s18.574-41.261,41.405-41.261c22.832,0,41.407,18.51,41.407,41.261S439.679,182.456,416.847,182.456z"/>
		<path fill="#D75555" d="M149.123,162.827h175.281c1.448,0,2.621-1.17,2.621-2.611v-37.612c0-1.442-1.174-2.611-2.621-2.611
			H149.123c-1.42,0-2.571,1.147-2.571,2.561v37.712C146.552,161.68,147.703,162.827,149.123,162.827z"/>
		<path fill="#2B9B98" d="M146.552,279.243c0,1.414,1.151,2.561,2.571,2.561h175.281c1.448,0,2.621-1.17,2.621-2.611v-46.126
			c0-1.442-1.174-2.611-2.621-2.611H149.123c-1.42,0-2.571,1.147-2.571,2.562V279.243z"/>
	</g>
	
		<line fill="none" stroke="#2B9B98" stroke-width="1.0434" stroke-linecap="round" stroke-miterlimit="10" x1="331.205" y1="143.86" x2="365.952" y2="143.86"/>
	<polygon fill="#2B9B98" points="365.19,141.263 369.701,143.86 365.19,146.457 	"/>
	
		<line fill="none" stroke="#D75555" stroke-width="1.0434" stroke-linecap="round" stroke-miterlimit="10" x1="331.205" y1="138.009" x2="365.952" y2="138.009"/>
	<polygon fill="#D75555" points="365.19,135.413 369.701,138.009 365.19,140.606 	"/>
	
		<line fill="none" stroke="#2B9B98" stroke-width="1.5651" stroke-linecap="round" stroke-miterlimit="10" x1="210.944" y1="116.156" x2="210.944" y2="61.617"/>
	<polygon fill="#2B9B98" points="207.818,62.529 210.945,57.132 214.072,62.529 	"/>
	
		<line fill="none" stroke="#D75555" stroke-width="1.5651" stroke-linecap="round" stroke-miterlimit="10" x1="217.634" y1="116.156" x2="217.634" y2="61.617"/>
	<polygon fill="#D75555" points="214.508,62.529 217.635,57.132 220.761,62.529 	"/>
	<g>
		<path fill="#E57CAD" d="M324.405,21.735H149.123c-1.42,0-2.571,1.147-2.571,2.562v26.437c0,0.383,0.085,0.746,0.236,1.073
			c0.407,0.879,1.3,1.488,2.335,1.488h175.281c1.448,0,2.621-1.17,2.621-2.611V24.347C327.026,22.905,325.852,21.735,324.405,21.735
			z"/>
		<path fill="#AFDEDD" d="M60.126,37.001h78.442v-1.565H60.126c-2.734,0-4.958,2.219-4.958,4.945v51.76h1.565v-51.76
			C56.734,38.517,58.256,37.001,60.126,37.001z"/>
	</g>
	<polygon fill="#AFDEDD" points="137.655,33.102 143.071,36.219 137.655,39.334 	"/>
	<path fill="#E57CAD" d="M418.853,30.243h-87.648c-0.433,0-0.782,0.351-0.782,0.783s0.35,0.783,0.782,0.783h87.648
		c1.863,0,3.379,1.526,3.379,3.403v54.958c0,0.432,0.35,0.783,0.782,0.783s0.782-0.351,0.782-0.783V35.211
		C423.796,32.472,421.578,30.243,418.853,30.243z"/>
	<polygon fill="#E57CAD" points="419.886,89.257 426.14,89.257 423.013,94.654 	"/>
	<path fill="#D75555" d="M413.346,35.972h-82.142c-0.433,0-0.782,0.351-0.782,0.783s0.35,0.783,0.782,0.783h82.142
		c0.984,0,2.065,1.089,2.065,2.081v50.551c0,0.432,0.35,0.783,0.782,0.783s0.782-0.351,0.782-0.783V39.618
		C416.976,37.744,415.212,35.972,413.346,35.972z"/>
	<polygon fill="#D75555" points="413.067,89.257 419.32,89.257 416.193,94.654 	"/>
	<path fill="#2B9B98" d="M406.439,41.766h-75.235c-0.433,0-0.782,0.351-0.782,0.783s0.35,0.783,0.782,0.783h75.235
		c1.195,0,2.205,1.22,2.205,2.665V90.17c0,0.432,0.35,0.783,0.782,0.783s0.782-0.351,0.782-0.783V45.996
		C410.209,43.664,408.519,41.766,406.439,41.766z"/>
	<polygon fill="#2B9B98" points="406.299,89.257 412.553,89.257 409.426,94.654 	"/>
	<polygon fill="#2B9B98" points="414.434,193.338 417.561,187.942 420.687,193.338 	"/>
	
	
		<line fill="none" stroke="#E57CAD" stroke-width="2.0868" stroke-linecap="round" stroke-miterlimit="10" x1="94.111" y1="301.433" x2="124.421" y2="301.433"/>
	
	
		<line fill="none" stroke="#D75555" stroke-width="2.0868" stroke-linecap="round" stroke-miterlimit="10" x1="190.089" y1="301.433" x2="220.399" y2="301.433"/>
	
	
		<line fill="none" stroke="#2B9B98" stroke-width="2.0868" stroke-linecap="round" stroke-miterlimit="10" x1="286.769" y1="301.433" x2="317.079" y2="301.433"/>
	
		<line fill="none" stroke="#2B9B98" stroke-width="1.5651" stroke-linecap="round" stroke-miterlimit="10" x1="210.944" y1="226.455" x2="210.944" y2="171.917"/>
	<polygon fill="#2B9B98" points="207.818,172.829 210.945,167.432 214.072,172.829 	"/>
	<path fill="#E57CAD" d="M171.363,52.362l-10.274,10.239c-1.017,1.014-2.665,1.014-3.683,0l-10.273-10.239"/>
	<path fill="#D75555" d="M171.411,161.96L161.137,172.2c-1.017,1.014-2.665,1.014-3.682,0L147.18,161.96"/>
	
		<line fill="none" stroke="#FFFFFF" stroke-width="0.7826" stroke-miterlimit="10" x1="171.013" y1="53.712" x2="171.013" y2="21.166"/>
	
		<line fill="none" stroke="#FFFFFF" stroke-width="0.7826" stroke-miterlimit="10" x1="171.013" y1="163.245" x2="171.013" y2="119.993"/>
	
		<line fill="none" stroke="#FFFFFF" stroke-width="0.7826" stroke-miterlimit="10" x1="171.013" y1="282.599" x2="171.013" y2="230.201"/>
</g>
<style type="text/css">
#g-schematic-override-print-img rect, #g-schematic-override-print-img circle, #g-schematic-override-print-img path, #g-schematic-override-print-img line, #g-schematic-override-print-img polyline { vector-effect: non-scaling-stroke; }
</style>
</svg>

