<?xml version="1.0" encoding="utf-8"?>
<!-- Generator: Adobe Illustrator 23.0.1, SVG Export Plug-In . SVG Version: 6.00 Build 0)  -->
<svg version="1.2" baseProfile="tiny" id="g-example-print-img" xmlns="http://www.w3.org/2000/svg" xmlns:xlink="http://www.w3.org/1999/xlink"
	 x="0px" y="0px" viewBox="0 0 468 507.938" xml:space="preserve">
<g>
	<g>
		<text transform="matrix(1 0 0 1 52.0451 189.6385)" fill="#231F20" font-family="'Lato-Regular'" font-size="9px">0 </text>
		<text transform="matrix(1 0 0 1 37.0295 40.5839)" fill="#231F20" font-family="'Lato-Regular'" font-size="9px">6,000</text>
		<text transform="matrix(1 0 0 1 37.0295 90.2694)" fill="#231F20" font-family="'Lato-Regular'" font-size="9px">4,000</text>
		<text transform="matrix(1 0 0 1 37.0295 139.9535)" fill="#231F20" font-family="'Lato-Regular'" font-size="9px">2,000</text>
		<text transform="matrix(1 0 0 1 427.2961 189.6576)" fill="#231F20" font-family="'Lato-Regular'" font-size="9px">0% </text>
		<text transform="matrix(1 0 0 1 425.8537 40.5839)" fill="#231F20" font-family="'Lato-Regular'" font-size="9px">15%</text>
		<text transform="matrix(1 0 0 1 425.8537 90.2753)" fill="#231F20" font-family="'Lato-Regular'" font-size="9px">10%</text>
		<text transform="matrix(1 0 0 1 425.8537 139.9667)" fill="#231F20" font-family="'Lato-Regular'" font-size="9px">5%</text>
		<text transform="matrix(0 -1 1 0 20.7053 188.1566)" fill="#808184" font-family="'Lato-Regular'" font-size="9px">P</text>
		<text transform="matrix(0 -1 1 0 20.7053 182.3969)" fill="#808184" font-family="'Lato-Regular'" font-size="9px">e</text>
		<text transform="matrix(0 -1 1 0 20.7053 177.3915)" fill="#808184" font-family="'Lato-Regular'" font-size="9px">o</text>
		<text transform="matrix(0 -1 1 0 20.7053 172.3861)" fill="#808184" font-family="'Lato-Regular'" font-size="9px">p</text>
		<text transform="matrix(0 -1 1 0 20.7053 167.3807)" fill="#808184" font-family="'Lato-Regular'" font-size="9px">l</text>
		<text transform="matrix(0 -1 1 0 20.7053 165.3812)" fill="#808184" font-family="'Lato-Regular'" font-size="9px">e</text>
		<text transform="matrix(0 -1 1 0 20.7053 160.3759)" fill="#808184" font-family="'Lato-Regular'" font-size="9px"> </text>
		<text transform="matrix(0 -1 1 0 20.7053 157.8754)" fill="#808184" font-family="'Lato-Regular'" font-size="9px">w</text>
		<text transform="matrix(0 -1 1 0 20.7053 151.3759)" fill="#808184" font-family="'Lato-Regular'" font-size="9px">i</text>
		<text transform="matrix(0 -1 1 0 20.7053 149.3763)" fill="#808184" font-family="'Lato-Regular'" font-size="9px">t</text>
		<text transform="matrix(0 -1 1 0 20.7053 146.8759)" fill="#808184" font-family="'Lato-Regular'" font-size="9px">h</text>
		<text transform="matrix(0 -1 1 0 20.7053 141.8705)" fill="#808184" font-family="'Lato-Regular'" font-size="9px"> </text>
		<text transform="matrix(0 -1 1 0 20.7053 139.37)" fill="#808184" font-family="'Lato-Regular'" font-size="9px">r</text>
		<text transform="matrix(0 -1 1 0 20.7053 136.5345)" fill="#808184" font-family="'Lato-Regular'" font-size="9px">e</text>
		<text transform="matrix(0 -1 1 0 20.7053 131.5292)" fill="#808184" font-family="'Lato-Regular'" font-size="9px">d</text>
		<text transform="matrix(0 -1 1 0 20.7053 126.5238)" fill="#808184" font-family="'Lato-Regular'" font-size="9px">u</text>
		<text transform="matrix(0 -1 1 0 20.7053 121.5184)" fill="#808184" font-family="'Lato-Regular'" font-size="9px">c</text>
		<text transform="matrix(0 -1 1 0 20.7053 117.0907)" fill="#808184" font-family="'Lato-Regular'" font-size="9px">e</text>
		<text transform="matrix(0 -1 1 0 20.7053 112.0853)" fill="#808184" font-family="'Lato-Regular'" font-size="9px">d</text>
		<text transform="matrix(0 -1 1 0 20.7053 107.08)" fill="#808184" font-family="'Lato-Regular'" font-size="9px"> </text>
		<text transform="matrix(0 -1 1 0 20.7053 104.5795)" fill="#808184" font-family="'Lato-Regular'" font-size="9px">l</text>
		<text transform="matrix(0 -1 1 0 20.7053 102.9847)" fill="#808184" font-family="'Lato-Regular'" font-size="9px">e</text>
		<text transform="matrix(0 -1 1 0 20.7053 98.3846)" fill="#808184" font-family="'Lato-Regular'" font-size="9px">n</text>
		<text transform="matrix(0 -1 1 0 20.7053 93.7841)" fill="#808184" font-family="'Lato-Regular'" font-size="9px">g</text>
		<text transform="matrix(0 -1 1 0 20.7053 89.184)" fill="#808184" font-family="'Lato-Regular'" font-size="9px">t</text>
		<text transform="matrix(0 -1 1 0 20.7053 87.0883)" fill="#808184" font-family="'Lato-Regular'" font-size="9px">h</text>
		<text transform="matrix(0 -1 1 0 20.7053 82.4882)" fill="#808184" font-family="'Lato-Regular'" font-size="9px"> </text>
		<text transform="matrix(0 -1 1 0 20.7053 80.3925)" fill="#808184" font-family="'Lato-Regular'" font-size="9px">o</text>
		<text transform="matrix(0 -1 1 0 20.7053 75.7919)" fill="#808184" font-family="'Lato-Regular'" font-size="9px">f</text>
		<text transform="matrix(0 -1 1 0 20.7053 73.6967)" fill="#808184" font-family="'Lato-Regular'" font-size="9px"> </text>
		<text transform="matrix(0 -1 1 0 20.7053 71.601)" fill="#808184" font-family="'Lato-Regular'" font-size="9px">s</text>
		<text transform="matrix(0 -1 1 0 20.7053 67.5062)" fill="#808184" font-family="'Lato-Regular'" font-size="9px">u</text>
		<text transform="matrix(0 -1 1 0 20.7053 62.9056)" fill="#808184" font-family="'Lato-Regular'" font-size="9px">p</text>
		<text transform="matrix(0 -1 1 0 20.7053 58.3055)" fill="#808184" font-family="'Lato-Regular'" font-size="9px">e</text>
		<text transform="matrix(0 -1 1 0 20.7053 53.705)" fill="#808184" font-family="'Lato-Regular'" font-size="9px">r</text>
		<text transform="matrix(0 -1 1 0 20.7053 51.1132)" fill="#808184" font-family="'Lato-Regular'" font-size="9px">v</text>
		<text transform="matrix(0 -1 1 0 20.7053 47.0179)" fill="#808184" font-family="'Lato-Regular'" font-size="9px">i</text>
		<text transform="matrix(0 -1 1 0 20.7053 45.4232)" fill="#808184" font-family="'Lato-Regular'" font-size="9px">s</text>
		<text transform="matrix(0 -1 1 0 20.7053 41.3285)" fill="#808184" font-family="'Lato-Regular'" font-size="9px">i</text>
		<text transform="matrix(0 -1 1 0 20.7053 39.7338)" fill="#808184" font-family="'Lato-Regular'" font-size="9px">o</text>
		<text transform="matrix(0 -1 1 0 20.7053 35.1337)" fill="#808184" font-family="'Lato-Regular'" font-size="9px">n</text>
		<text transform="matrix(0 -1 1 0 460.3332 128.4379)" fill="#808184" font-family="'Lato-Regular'" font-size="9px">%</text>
		<text transform="matrix(0 -1 1 0 460.3332 120.4354)" fill="#808184" font-family="'Lato-Regular'" font-size="9px"> </text>
		<text transform="matrix(0 -1 1 0 460.3332 117.9349)" fill="#808184" font-family="'Lato-Regular'" font-size="9px">d</text>
		<text transform="matrix(0 -1 1 0 460.3332 112.9296)" fill="#808184" font-family="'Lato-Regular'" font-size="9px">r</text>
		<text transform="matrix(0 -1 1 0 460.3332 110.0853)" fill="#808184" font-family="'Lato-Regular'" font-size="9px">o</text>
		<text transform="matrix(0 -1 1 0 460.3332 105.08)" fill="#808184" font-family="'Lato-Regular'" font-size="9px">p</text>
		<text transform="matrix(0 -1 1 0 460.3332 100.0746)" fill="#808184" font-family="'Lato-Regular'" font-size="9px"> </text>
		<text transform="matrix(0 -1 1 0 460.3332 97.5741)" fill="#808184" font-family="'Lato-Regular'" font-size="9px">i</text>
		<text transform="matrix(0 -1 1 0 460.3332 95.5746)" fill="#808184" font-family="'Lato-Regular'" font-size="9px">n</text>
		<text transform="matrix(0 -1 1 0 460.3332 90.5692)" fill="#808184" font-family="'Lato-Regular'" font-size="9px"> </text>
		<text transform="matrix(0 -1 1 0 460.3332 88.0687)" fill="#808184" font-family="'Lato-Regular'" font-size="9px">A</text>
		<text transform="matrix(0 -1 1 0 460.3332 82.0658)" fill="#808184" font-family="'Lato-Regular'" font-size="9px">D</text>
		<text transform="matrix(0 -1 1 0 460.3332 75.5663)" fill="#808184" font-family="'Lato-Regular'" font-size="9px">P</text>
		<text transform="matrix(1 0 0 1 86.0519 204.5204)" fill="#231F20" font-family="'Lato-Regular'" font-size="9px">Less than 1</text>
		<text transform="matrix(1 0 0 1 168.6193 204.5204)" fill="#231F20" font-family="'Lato-Regular'" font-size="9px">1 to less than 2</text>
		<text transform="matrix(1 0 0 1 258.4435 204.5204)" fill="#231F20" font-family="'Lato-Regular'" font-size="9px">2 to less than 3</text>
		<text transform="matrix(1 0 0 1 359.5285 204.5204)" fill="#231F20" font-family="'Lato-Regular'" font-size="9px">3 or more</text>
		
			<line fill="none" stroke="#808184" stroke-width="0.2451" stroke-linejoin="round" stroke-miterlimit="10" x1="64.303" y1="37.498" x2="423.175" y2="37.498"/>
		
			<line fill="none" stroke="#808184" stroke-width="0.2451" stroke-linejoin="round" stroke-miterlimit="10" x1="64.303" y1="86.947" x2="423.175" y2="86.947"/>
		
			<line fill="none" stroke="#808184" stroke-width="0.2451" stroke-linejoin="round" stroke-miterlimit="10" x1="64.303" y1="137.809" x2="423.175" y2="137.809"/>
		<rect x="349.079" y="124.387" fill="#28377A" width="59.41" height="62.165"/>
		<g>
			<rect x="259.674" y="128.625" fill="#28377A" width="59.41" height="57.926"/>
			<rect x="169.644" y="101.782" fill="#28377A" width="59.41" height="84.77"/>
		</g>
		<rect x="79.614" y="59.397" fill="#28377A" width="59.41" height="127.155"/>
		
			<line fill="none" stroke="#808184" stroke-width="0.2451" stroke-linejoin="round" stroke-miterlimit="10" x1="64.303" y1="186.552" x2="423.175" y2="186.552"/>
		
			<polyline fill="none" stroke="#F37E4B" stroke-width="2.2286" stroke-linecap="round" stroke-linejoin="round" stroke-miterlimit="10" points="
			108.693,149.818 198.723,121.562 288.755,111.672 378.784,50.919 		"/>
		<text transform="matrix(1 0 0 1 86.6965 80.5531)" fill="#FFFFFF" font-family="'Lato-Black'" font-size="17.1264px">5</text>
		<text transform="matrix(1 0 0 1 95.8957 80.5531)" fill="#FFFFFF" font-family="'Lato-Black'" font-size="17.1264px">,</text>
		<text transform="matrix(1 0 0 1 100.3293 80.5531)" fill="#FFFFFF" font-family="'Lato-Black'" font-size="17.1264px">1</text>
		<text transform="matrix(1 0 0 1 109.5285 80.5531)" fill="#FFFFFF" font-family="'Lato-Black'" font-size="17.1264px">0</text>
		<text transform="matrix(1 0 0 1 118.7277 80.5531)" fill="#FFFFFF" font-family="'Lato-Black'" font-size="17.1264px">6</text>
		<text transform="matrix(1 0 0 1 179.0549 145.7504)" fill="#FFFFFF" font-family="'Lato-Black'" font-size="17.1264px">3</text>
		<text transform="matrix(1 0 0 1 188.2541 145.7504)" fill="#FFFFFF" font-family="'Lato-Black'" font-size="17.1264px">,</text>
		<text transform="matrix(1 0 0 1 192.6877 145.7504)" fill="#FFFFFF" font-family="'Lato-Black'" font-size="17.1264px">4</text>
		<text transform="matrix(1 0 0 1 201.8869 145.7504)" fill="#FFFFFF" font-family="'Lato-Black'" font-size="17.1264px">0</text>
		<text transform="matrix(1 0 0 1 211.0861 145.7504)" fill="#FFFFFF" font-family="'Lato-Black'" font-size="17.1264px">3</text>
		<text transform="matrix(1 0 0 1 267.6984 147.3846)" fill="#FFFFFF" font-family="'Lato-Black'" font-size="17.1264px">2</text>
		<text transform="matrix(1 0 0 1 276.8976 147.3846)" fill="#FFFFFF" font-family="'Lato-Black'" font-size="17.1264px">,</text>
		<text transform="matrix(1 0 0 1 281.3312 147.3846)" fill="#FFFFFF" font-family="'Lato-Black'" font-size="17.1264px">3</text>
		<text transform="matrix(1 0 0 1 290.5305 147.3846)" fill="#FFFFFF" font-family="'Lato-Black'" font-size="17.1264px">6</text>
		<text transform="matrix(1 0 0 1 299.7297 147.3846)" fill="#FFFFFF" font-family="'Lato-Black'" font-size="17.1264px">7</text>
		<text transform="matrix(1 0 0 1 357.7248 143.5223)" fill="#FFFFFF" font-family="'Lato-Black'" font-size="17.1264px">2</text>
		<text transform="matrix(1 0 0 1 366.924 143.5223)" fill="#FFFFFF" font-family="'Lato-Black'" font-size="17.1264px">,</text>
		<text transform="matrix(1 0 0 1 371.3576 143.5223)" fill="#FFFFFF" font-family="'Lato-Black'" font-size="17.1264px">4</text>
		<text transform="matrix(1 0 0 1 380.5568 143.5223)" fill="#FFFFFF" font-family="'Lato-Black'" font-size="17.1264px">9</text>
		<text transform="matrix(1 0 0 1 389.756 143.5223)" fill="#FFFFFF" font-family="'Lato-Black'" font-size="17.1264px">2</text>
		<g>
			<rect x="12.553" y="233.183" fill-rule="evenodd" fill="#28377A" width="7.777" height="9.657"/>
			<text transform="matrix(1 0 0 1 25.8752 242.8412)" fill="#808184" font-family="'Lato-Regular'" font-size="9px">N</text>
			<text transform="matrix(1 0 0 1 32.3752 242.8412)" fill="#808184" font-family="'Lato-Regular'" font-size="9px">u</text>
			<text transform="matrix(1 0 0 1 37.3801 242.8412)" fill="#808184" font-family="'Lato-Regular'" font-size="9px">m</text>
			<text transform="matrix(1 0 0 1 44.8771 242.8412)" fill="#808184" font-family="'Lato-Regular'" font-size="9px">b</text>
			<text transform="matrix(1 0 0 1 49.883 242.8412)" fill="#808184" font-family="'Lato-Regular'" font-size="9px">e</text>
			<text transform="matrix(1 0 0 1 54.8879 242.8412)" fill="#808184" font-family="'Lato-Regular'" font-size="9px">r</text>
			<text transform="matrix(1 0 0 1 57.8849 242.8412)" fill="#808184" font-family="'Lato-Regular'" font-size="9px"> </text>
			<text transform="matrix(1 0 0 1 60.3849 242.8412)" fill="#808184" font-family="'Lato-Regular'" font-size="9px">o</text>
			<text transform="matrix(1 0 0 1 65.3908 242.8412)" fill="#808184" font-family="'Lato-Regular'" font-size="9px">f</text>
			<text transform="matrix(1 0 0 1 67.8908 242.8412)" fill="#808184" font-family="'Lato-Regular'" font-size="9px"> </text>
			<text transform="matrix(1 0 0 1 70.3918 242.8412)" fill="#808184" font-family="'Lato-Regular'" font-size="9px">p</text>
			<text transform="matrix(1 0 0 1 75.3967 242.8412)" fill="#808184" font-family="'Lato-Regular'" font-size="9px">e</text>
			<text transform="matrix(1 0 0 1 80.4025 242.8412)" fill="#808184" font-family="'Lato-Regular'" font-size="9px">o</text>
			<text transform="matrix(1 0 0 1 85.4084 242.8412)" fill="#808184" font-family="'Lato-Regular'" font-size="9px">p</text>
			<text transform="matrix(1 0 0 1 90.4133 242.8412)" fill="#808184" font-family="'Lato-Regular'" font-size="9px">l</text>
			<text transform="matrix(1 0 0 1 92.4123 242.8412)" fill="#808184" font-family="'Lato-Regular'" font-size="9px">e</text>
			<text transform="matrix(1 0 0 1 97.4182 242.8412)" fill="#808184" font-family="'Lato-Regular'" font-size="9px"> </text>
			<text transform="matrix(1 0 0 1 99.9182 242.8412)" fill="#808184" font-family="'Lato-Regular'" font-size="9px">w</text>
			<text transform="matrix(1 0 0 1 106.4182 242.8412)" fill="#808184" font-family="'Lato-Regular'" font-size="9px">i</text>
			<text transform="matrix(1 0 0 1 108.4182 242.8412)" fill="#808184" font-family="'Lato-Regular'" font-size="9px">t</text>
			<text transform="matrix(1 0 0 1 110.9182 242.8412)" fill="#808184" font-family="'Lato-Regular'" font-size="9px">h</text>
			<text transform="matrix(1 0 0 1 115.924 242.8412)" fill="#808184" font-family="'Lato-Regular'" font-size="9px"> </text>
			<text transform="matrix(1 0 0 1 118.424 242.8412)" fill="#808184" font-family="'Lato-Regular'" font-size="9px">r</text>
			<text transform="matrix(1 0 0 1 121.2678 242.8412)" fill="#808184" font-family="'Lato-Regular'" font-size="9px">e</text>
			<text transform="matrix(1 0 0 1 126.2736 242.8412)" fill="#808184" font-family="'Lato-Regular'" font-size="9px">d</text>
			<text transform="matrix(1 0 0 1 131.2785 242.8412)" fill="#808184" font-family="'Lato-Regular'" font-size="9px">u</text>
			<text transform="matrix(1 0 0 1 136.2844 242.8412)" fill="#808184" font-family="'Lato-Regular'" font-size="9px">c</text>
			<text transform="matrix(1 0 0 1 140.7033 242.8412)" fill="#808184" font-family="'Lato-Regular'" font-size="9px">e</text>
			<text transform="matrix(1 0 0 1 145.7082 242.8412)" fill="#808184" font-family="'Lato-Regular'" font-size="9px">d</text>
			<text transform="matrix(1 0 0 1 150.7141 242.8412)" fill="#808184" font-family="'Lato-Regular'" font-size="9px"> </text>
			<text transform="matrix(1 0 0 1 153.2141 242.8412)" fill="#808184" font-family="'Lato-Regular'" font-size="9px">p</text>
			<text transform="matrix(1 0 0 1 158.2199 242.8412)" fill="#808184" font-family="'Lato-Regular'" font-size="9px">r</text>
			<text transform="matrix(1 0 0 1 161.0637 242.8412)" fill="#808184" font-family="'Lato-Regular'" font-size="9px">o</text>
			<text transform="matrix(1 0 0 1 166.0695 242.8412)" fill="#808184" font-family="'Lato-Regular'" font-size="9px">b</text>
			<text transform="matrix(1 0 0 1 171.0744 242.8412)" fill="#808184" font-family="'Lato-Regular'" font-size="9px">a</text>
			<text transform="matrix(1 0 0 1 176.0803 242.8412)" fill="#808184" font-family="'Lato-Regular'" font-size="9px">t</text>
			<text transform="matrix(1 0 0 1 178.5803 242.8412)" fill="#808184" font-family="'Lato-Regular'" font-size="9px">i</text>
			<text transform="matrix(1 0 0 1 180.5803 242.8412)" fill="#808184" font-family="'Lato-Regular'" font-size="9px">o</text>
			<text transform="matrix(1 0 0 1 185.5851 242.8412)" fill="#808184" font-family="'Lato-Regular'" font-size="9px">n</text>
		</g>
		<g>
			<text transform="matrix(1 0 0 1 226.7971 241.932)" fill="#808184" font-family="'Lato-Regular'" font-size="9px">S</text>
			<text transform="matrix(1 0 0 1 232.8 241.932)" fill="#808184" font-family="'Lato-Regular'" font-size="9px">h</text>
			<text transform="matrix(1 0 0 1 237.8049 241.932)" fill="#808184" font-family="'Lato-Regular'" font-size="9px">a</text>
			<text transform="matrix(1 0 0 1 242.8107 241.932)" fill="#808184" font-family="'Lato-Regular'" font-size="9px">r</text>
			<text transform="matrix(1 0 0 1 245.6545 241.932)" fill="#808184" font-family="'Lato-Regular'" font-size="9px">e</text>
			<text transform="matrix(1 0 0 1 250.6603 241.932)" fill="#808184" font-family="'Lato-Regular'" font-size="9px"> </text>
			<text transform="matrix(1 0 0 1 253.1603 241.932)" fill="#808184" font-family="'Lato-Regular'" font-size="9px">o</text>
			<text transform="matrix(1 0 0 1 258.1662 241.932)" fill="#808184" font-family="'Lato-Regular'" font-size="9px">f</text>
			<text transform="matrix(1 0 0 1 260.6662 241.932)" fill="#808184" font-family="'Lato-Regular'" font-size="9px"> </text>
			<text transform="matrix(1 0 0 1 263.1672 241.932)" fill="#808184" font-family="'Lato-Regular'" font-size="9px">A</text>
			<text transform="matrix(1 0 0 1 269.1701 241.932)" fill="#808184" font-family="'Lato-Regular'" font-size="9px">D</text>
			<text transform="matrix(1 0 0 1 275.6691 241.932)" fill="#808184" font-family="'Lato-Regular'" font-size="9px">P</text>
			<text transform="matrix(1 0 0 1 281.6721 241.932)" fill="#808184" font-family="'Lato-Regular'" font-size="9px"> </text>
			<text transform="matrix(1 0 0 1 284.173 241.932)" fill="#808184" font-family="'Lato-Regular'" font-size="9px">d</text>
			<text transform="matrix(1 0 0 1 289.1779 241.932)" fill="#808184" font-family="'Lato-Regular'" font-size="9px">r</text>
			<text transform="matrix(1 0 0 1 292.0226 241.932)" fill="#808184" font-family="'Lato-Regular'" font-size="9px">o</text>
			<text transform="matrix(1 0 0 1 297.0275 241.932)" fill="#808184" font-family="'Lato-Regular'" font-size="9px">p</text>
			
				<line fill="none" stroke="#F37E4B" stroke-width="2.2286" stroke-miterlimit="10" x1="212.084" y1="237.968" x2="223.586" y2="237.968"/>
		</g>
		<text transform="matrix(1 0 0 1 101.7385 141.183)" fill="#F37E4B" font-family="'Lato-Regular'" font-size="9px">4%</text>
		<rect x="361.396" y="27.399" fill="#FFFFFF" width="36.475" height="20.197"/>
		<text transform="matrix(1 0 0 1 194.298 112.5677)" fill="#F37E4B" font-family="'Lato-Regular'" font-size="9px">7%</text>
		<text transform="matrix(1 0 0 1 280.3586 101.7826)" fill="#F37E4B" font-family="'Lato-Regular'" font-size="9px">8%</text>
		<text transform="matrix(1 0 0 1 370.7805 42.038)" fill="#F37E4B" font-family="'Lato-Regular'" font-size="9px">14%</text>
		<text transform="matrix(1 0 0 1 157.5617 223.0087)" fill="#808184" font-family="'Lato-Regular'" font-size="9px">Years term could have been safely reduced</text>
	</g>
	<text transform="matrix(1 0 0 1 0.6642 11.2391)" fill="#333333" font-family="'Lato-Heavy'" font-size="12px">S</text>
	<text transform="matrix(1 0 0 1 7.2639 11.2391)" fill="#333333" font-family="'Lato-Heavy'" font-size="12px">o</text>
	<text transform="matrix(1 0 0 1 14.1945 11.2391)" fill="#333333" font-family="'Lato-Heavy'" font-size="12px">u</text>
	<text transform="matrix(1 0 0 1 20.9924 11.2391)" fill="#333333" font-family="'Lato-Heavy'" font-size="12px">t</text>
	<text transform="matrix(1 0 0 1 25.5217 11.2391)" fill="#333333" font-family="'Lato-Heavy'" font-size="12px">h</text>
	<text transform="matrix(1 0 0 1 32.3264 11.2391)" fill="#333333" font-family="'Lato-Heavy'" font-size="12px"> </text>
	<text transform="matrix(1 0 0 1 35.176 11.2391)" fill="#333333" font-family="'Lato-Heavy'" font-size="12px">C</text>
	<text transform="matrix(1 0 0 1 43.0842 11.2391)" fill="#333333" font-family="'Lato-Heavy'" font-size="12px">a</text>
	<text transform="matrix(1 0 0 1 49.2277 11.2391)" fill="#333333" font-family="'Lato-Heavy'" font-size="12px">r</text>
	<text transform="matrix(1 0 0 1 53.6076 11.2391)" fill="#333333" font-family="'Lato-Heavy'" font-size="12px">o</text>
	<text transform="matrix(1 0 0 1 60.5373 11.2391)" fill="#333333" font-family="'Lato-Heavy'" font-size="12px">l</text>
	<text transform="matrix(1 0 0 1 63.5861 11.2391)" fill="#333333" font-family="'Lato-Heavy'" font-size="12px">i</text>
	<text transform="matrix(1 0 0 1 66.7053 11.2391)" fill="#333333" font-family="'Lato-Heavy'" font-size="12px">n</text>
	<text transform="matrix(1 0 0 1 73.5099 11.2391)" fill="#333333" font-family="'Lato-Heavy'" font-size="12px">a</text>
	<text transform="matrix(1 0 0 1 0.6642 270.8231)" fill="#333333" font-family="'Lato-Heavy'" font-size="12px">O</text>
	<text transform="matrix(1 0 0 1 10.3 270.8231)" fill="#333333" font-family="'Lato-Heavy'" font-size="12px">r</text>
	<text transform="matrix(1 0 0 1 14.6799 270.8231)" fill="#333333" font-family="'Lato-Heavy'" font-size="12px">e</text>
	<text transform="matrix(1 0 0 1 21.1125 270.8231)" fill="#333333" font-family="'Lato-Heavy'" font-size="12px">g</text>
	<text transform="matrix(1 0 0 1 27.3762 270.8231)" fill="#333333" font-family="'Lato-Heavy'" font-size="12px">o</text>
	<text transform="matrix(1 0 0 1 34.3058 270.8231)" fill="#333333" font-family="'Lato-Heavy'" font-size="12px">n</text>
	<g>
		<text transform="matrix(0 -1 1 0 18.9924 444.3138)" fill="#808184" font-family="'Lato-Regular'" font-size="9px">P</text>
		<text transform="matrix(0 -1 1 0 18.9924 438.5541)" fill="#808184" font-family="'Lato-Regular'" font-size="9px">e</text>
		<text transform="matrix(0 -1 1 0 18.9924 433.5487)" fill="#808184" font-family="'Lato-Regular'" font-size="9px">o</text>
		<text transform="matrix(0 -1 1 0 18.9924 428.5433)" fill="#808184" font-family="'Lato-Regular'" font-size="9px">p</text>
		<text transform="matrix(0 -1 1 0 18.9924 423.538)" fill="#808184" font-family="'Lato-Regular'" font-size="9px">l</text>
		<text transform="matrix(0 -1 1 0 18.9924 421.5385)" fill="#808184" font-family="'Lato-Regular'" font-size="9px">e</text>
		<text transform="matrix(0 -1 1 0 18.9924 416.5331)" fill="#808184" font-family="'Lato-Regular'" font-size="9px"> </text>
		<text transform="matrix(0 -1 1 0 18.9924 414.0326)" fill="#808184" font-family="'Lato-Regular'" font-size="9px">w</text>
		<text transform="matrix(0 -1 1 0 18.9924 407.5331)" fill="#808184" font-family="'Lato-Regular'" font-size="9px">i</text>
		<text transform="matrix(0 -1 1 0 18.9924 405.5336)" fill="#808184" font-family="'Lato-Regular'" font-size="9px">t</text>
		<text transform="matrix(0 -1 1 0 18.9924 403.0331)" fill="#808184" font-family="'Lato-Regular'" font-size="9px">h</text>
		<text transform="matrix(0 -1 1 0 18.9924 398.0277)" fill="#808184" font-family="'Lato-Regular'" font-size="9px"> </text>
		<text transform="matrix(0 -1 1 0 18.9924 395.5272)" fill="#808184" font-family="'Lato-Regular'" font-size="9px">r</text>
		<text transform="matrix(0 -1 1 0 18.9924 392.6918)" fill="#808184" font-family="'Lato-Regular'" font-size="9px">e</text>
		<text transform="matrix(0 -1 1 0 18.9924 387.6864)" fill="#808184" font-family="'Lato-Regular'" font-size="9px">d</text>
		<text transform="matrix(0 -1 1 0 18.9924 382.681)" fill="#808184" font-family="'Lato-Regular'" font-size="9px">u</text>
		<text transform="matrix(0 -1 1 0 18.9924 377.6757)" fill="#808184" font-family="'Lato-Regular'" font-size="9px">c</text>
		<text transform="matrix(0 -1 1 0 18.9924 373.2479)" fill="#808184" font-family="'Lato-Regular'" font-size="9px">e</text>
		<text transform="matrix(0 -1 1 0 18.9924 368.2426)" fill="#808184" font-family="'Lato-Regular'" font-size="9px">d</text>
		<text transform="matrix(0 -1 1 0 18.9924 363.2372)" fill="#808184" font-family="'Lato-Regular'" font-size="9px"> </text>
		<text transform="matrix(0 -1 1 0 18.9924 360.7367)" fill="#808184" font-family="'Lato-Regular'" font-size="9px">l</text>
		<text transform="matrix(0 -1 1 0 18.9924 359.142)" fill="#808184" font-family="'Lato-Regular'" font-size="9px">e</text>
		<text transform="matrix(0 -1 1 0 18.9924 354.5419)" fill="#808184" font-family="'Lato-Regular'" font-size="9px">n</text>
		<text transform="matrix(0 -1 1 0 18.9924 349.9413)" fill="#808184" font-family="'Lato-Regular'" font-size="9px">g</text>
		<text transform="matrix(0 -1 1 0 18.9924 345.3412)" fill="#808184" font-family="'Lato-Regular'" font-size="9px">t</text>
		<text transform="matrix(0 -1 1 0 18.9924 343.2455)" fill="#808184" font-family="'Lato-Regular'" font-size="9px">h</text>
		<text transform="matrix(0 -1 1 0 18.9924 338.6454)" fill="#808184" font-family="'Lato-Regular'" font-size="9px"> </text>
		<text transform="matrix(0 -1 1 0 18.9924 336.5497)" fill="#808184" font-family="'Lato-Regular'" font-size="9px">o</text>
		<text transform="matrix(0 -1 1 0 18.9924 331.9491)" fill="#808184" font-family="'Lato-Regular'" font-size="9px">f</text>
		<text transform="matrix(0 -1 1 0 18.9924 329.8539)" fill="#808184" font-family="'Lato-Regular'" font-size="9px"> </text>
		<text transform="matrix(0 -1 1 0 18.9924 327.7582)" fill="#808184" font-family="'Lato-Regular'" font-size="9px">s</text>
		<text transform="matrix(0 -1 1 0 18.9924 323.6635)" fill="#808184" font-family="'Lato-Regular'" font-size="9px">u</text>
		<text transform="matrix(0 -1 1 0 18.9924 319.0629)" fill="#808184" font-family="'Lato-Regular'" font-size="9px">p</text>
		<text transform="matrix(0 -1 1 0 18.9924 314.4628)" fill="#808184" font-family="'Lato-Regular'" font-size="9px">e</text>
		<text transform="matrix(0 -1 1 0 18.9924 309.8622)" fill="#808184" font-family="'Lato-Regular'" font-size="9px">r</text>
		<text transform="matrix(0 -1 1 0 18.9924 307.2704)" fill="#808184" font-family="'Lato-Regular'" font-size="9px">v</text>
		<text transform="matrix(0 -1 1 0 18.9924 303.1752)" fill="#808184" font-family="'Lato-Regular'" font-size="9px">i</text>
		<text transform="matrix(0 -1 1 0 18.9924 301.5804)" fill="#808184" font-family="'Lato-Regular'" font-size="9px">s</text>
		<text transform="matrix(0 -1 1 0 18.9924 297.4857)" fill="#808184" font-family="'Lato-Regular'" font-size="9px">i</text>
		<text transform="matrix(0 -1 1 0 18.9924 295.891)" fill="#808184" font-family="'Lato-Regular'" font-size="9px">o</text>
		<text transform="matrix(0 -1 1 0 18.9924 291.2909)" fill="#808184" font-family="'Lato-Regular'" font-size="9px">n</text>
		<text transform="matrix(0 -1 1 0 459.3078 384.5946)" fill="#808184" font-family="'Lato-Regular'" font-size="9px">%</text>
		<text transform="matrix(0 -1 1 0 459.3078 376.5922)" fill="#808184" font-family="'Lato-Regular'" font-size="9px"> </text>
		<text transform="matrix(0 -1 1 0 459.3078 374.0917)" fill="#808184" font-family="'Lato-Regular'" font-size="9px">d</text>
		<text transform="matrix(0 -1 1 0 459.3078 369.0863)" fill="#808184" font-family="'Lato-Regular'" font-size="9px">r</text>
		<text transform="matrix(0 -1 1 0 459.3078 366.2421)" fill="#808184" font-family="'Lato-Regular'" font-size="9px">o</text>
		<text transform="matrix(0 -1 1 0 459.3078 361.2367)" fill="#808184" font-family="'Lato-Regular'" font-size="9px">p</text>
		<text transform="matrix(0 -1 1 0 459.3078 356.2313)" fill="#808184" font-family="'Lato-Regular'" font-size="9px"> </text>
		<text transform="matrix(0 -1 1 0 459.3078 353.7308)" fill="#808184" font-family="'Lato-Regular'" font-size="9px">i</text>
		<text transform="matrix(0 -1 1 0 459.3078 351.7313)" fill="#808184" font-family="'Lato-Regular'" font-size="9px">n</text>
		<text transform="matrix(0 -1 1 0 459.3078 346.726)" fill="#808184" font-family="'Lato-Regular'" font-size="9px"> </text>
		<text transform="matrix(0 -1 1 0 459.3078 344.2255)" fill="#808184" font-family="'Lato-Regular'" font-size="9px">A</text>
		<text transform="matrix(0 -1 1 0 459.3078 338.2225)" fill="#808184" font-family="'Lato-Regular'" font-size="9px">D</text>
		<text transform="matrix(0 -1 1 0 459.3078 331.723)" fill="#808184" font-family="'Lato-Regular'" font-size="9px">P</text>
		<g>
			<rect x="12.553" y="493.23" fill-rule="evenodd" fill="#28377A" width="7.777" height="9.657"/>
			<text transform="matrix(1 0 0 1 25.8752 502.8876)" fill="#808184" font-family="'Lato-Regular'" font-size="9px">N</text>
			<text transform="matrix(1 0 0 1 32.3752 502.8876)" fill="#808184" font-family="'Lato-Regular'" font-size="9px">u</text>
			<text transform="matrix(1 0 0 1 37.3801 502.8876)" fill="#808184" font-family="'Lato-Regular'" font-size="9px">m</text>
			<text transform="matrix(1 0 0 1 44.8771 502.8876)" fill="#808184" font-family="'Lato-Regular'" font-size="9px">b</text>
			<text transform="matrix(1 0 0 1 49.883 502.8876)" fill="#808184" font-family="'Lato-Regular'" font-size="9px">e</text>
			<text transform="matrix(1 0 0 1 54.8879 502.8876)" fill="#808184" font-family="'Lato-Regular'" font-size="9px">r</text>
			<text transform="matrix(1 0 0 1 57.8849 502.8876)" fill="#808184" font-family="'Lato-Regular'" font-size="9px"> </text>
			<text transform="matrix(1 0 0 1 60.3849 502.8876)" fill="#808184" font-family="'Lato-Regular'" font-size="9px">o</text>
			<text transform="matrix(1 0 0 1 65.3908 502.8876)" fill="#808184" font-family="'Lato-Regular'" font-size="9px">f</text>
			<text transform="matrix(1 0 0 1 67.8908 502.8876)" fill="#808184" font-family="'Lato-Regular'" font-size="9px"> </text>
			<text transform="matrix(1 0 0 1 70.3918 502.8876)" fill="#808184" font-family="'Lato-Regular'" font-size="9px">p</text>
			<text transform="matrix(1 0 0 1 75.3967 502.8876)" fill="#808184" font-family="'Lato-Regular'" font-size="9px">e</text>
			<text transform="matrix(1 0 0 1 80.4025 502.8876)" fill="#808184" font-family="'Lato-Regular'" font-size="9px">o</text>
			<text transform="matrix(1 0 0 1 85.4084 502.8876)" fill="#808184" font-family="'Lato-Regular'" font-size="9px">p</text>
			<text transform="matrix(1 0 0 1 90.4133 502.8876)" fill="#808184" font-family="'Lato-Regular'" font-size="9px">l</text>
			<text transform="matrix(1 0 0 1 92.4123 502.8876)" fill="#808184" font-family="'Lato-Regular'" font-size="9px">e</text>
			<text transform="matrix(1 0 0 1 97.4182 502.8876)" fill="#808184" font-family="'Lato-Regular'" font-size="9px"> </text>
			<text transform="matrix(1 0 0 1 99.9182 502.8876)" fill="#808184" font-family="'Lato-Regular'" font-size="9px">w</text>
			<text transform="matrix(1 0 0 1 106.4182 502.8876)" fill="#808184" font-family="'Lato-Regular'" font-size="9px">i</text>
			<text transform="matrix(1 0 0 1 108.4182 502.8876)" fill="#808184" font-family="'Lato-Regular'" font-size="9px">t</text>
			<text transform="matrix(1 0 0 1 110.9182 502.8876)" fill="#808184" font-family="'Lato-Regular'" font-size="9px">h</text>
			<text transform="matrix(1 0 0 1 115.924 502.8876)" fill="#808184" font-family="'Lato-Regular'" font-size="9px"> </text>
			<text transform="matrix(1 0 0 1 118.424 502.8876)" fill="#808184" font-family="'Lato-Regular'" font-size="9px">r</text>
			<text transform="matrix(1 0 0 1 121.2678 502.8876)" fill="#808184" font-family="'Lato-Regular'" font-size="9px">e</text>
			<text transform="matrix(1 0 0 1 126.2736 502.8876)" fill="#808184" font-family="'Lato-Regular'" font-size="9px">d</text>
			<text transform="matrix(1 0 0 1 131.2785 502.8876)" fill="#808184" font-family="'Lato-Regular'" font-size="9px">u</text>
			<text transform="matrix(1 0 0 1 136.2844 502.8876)" fill="#808184" font-family="'Lato-Regular'" font-size="9px">c</text>
			<text transform="matrix(1 0 0 1 140.7033 502.8876)" fill="#808184" font-family="'Lato-Regular'" font-size="9px">e</text>
			<text transform="matrix(1 0 0 1 145.7082 502.8876)" fill="#808184" font-family="'Lato-Regular'" font-size="9px">d</text>
			<text transform="matrix(1 0 0 1 150.7141 502.8876)" fill="#808184" font-family="'Lato-Regular'" font-size="9px"> </text>
			<text transform="matrix(1 0 0 1 153.2141 502.8876)" fill="#808184" font-family="'Lato-Regular'" font-size="9px">p</text>
			<text transform="matrix(1 0 0 1 158.2199 502.8876)" fill="#808184" font-family="'Lato-Regular'" font-size="9px">r</text>
			<text transform="matrix(1 0 0 1 161.0637 502.8876)" fill="#808184" font-family="'Lato-Regular'" font-size="9px">o</text>
			<text transform="matrix(1 0 0 1 166.0695 502.8876)" fill="#808184" font-family="'Lato-Regular'" font-size="9px">b</text>
			<text transform="matrix(1 0 0 1 171.0744 502.8876)" fill="#808184" font-family="'Lato-Regular'" font-size="9px">a</text>
			<text transform="matrix(1 0 0 1 176.0803 502.8876)" fill="#808184" font-family="'Lato-Regular'" font-size="9px">t</text>
			<text transform="matrix(1 0 0 1 178.5803 502.8876)" fill="#808184" font-family="'Lato-Regular'" font-size="9px">i</text>
			<text transform="matrix(1 0 0 1 180.5803 502.8876)" fill="#808184" font-family="'Lato-Regular'" font-size="9px">o</text>
			<text transform="matrix(1 0 0 1 185.5851 502.8876)" fill="#808184" font-family="'Lato-Regular'" font-size="9px">n</text>
		</g>
		<g>
			<text transform="matrix(1 0 0 1 234.1535 501.9784)" fill="#808184" font-family="'Lato-Regular'" font-size="9px">S</text>
			<text transform="matrix(1 0 0 1 240.1564 501.9784)" fill="#808184" font-family="'Lato-Regular'" font-size="9px">h</text>
			<text transform="matrix(1 0 0 1 245.1623 501.9784)" fill="#808184" font-family="'Lato-Regular'" font-size="9px">a</text>
			<text transform="matrix(1 0 0 1 250.1672 501.9784)" fill="#808184" font-family="'Lato-Regular'" font-size="9px">r</text>
			<text transform="matrix(1 0 0 1 253.0109 501.9784)" fill="#808184" font-family="'Lato-Regular'" font-size="9px">e</text>
			<text transform="matrix(1 0 0 1 258.0168 501.9784)" fill="#808184" font-family="'Lato-Regular'" font-size="9px"> </text>
			<text transform="matrix(1 0 0 1 260.5168 501.9784)" fill="#808184" font-family="'Lato-Regular'" font-size="9px">o</text>
			<text transform="matrix(1 0 0 1 265.5226 501.9784)" fill="#808184" font-family="'Lato-Regular'" font-size="9px">f</text>
			<text transform="matrix(1 0 0 1 268.0226 501.9784)" fill="#808184" font-family="'Lato-Regular'" font-size="9px"> </text>
			<text transform="matrix(1 0 0 1 270.5236 501.9784)" fill="#808184" font-family="'Lato-Regular'" font-size="9px">A</text>
			<text transform="matrix(1 0 0 1 276.5266 501.9784)" fill="#808184" font-family="'Lato-Regular'" font-size="9px">D</text>
			<text transform="matrix(1 0 0 1 283.0256 501.9784)" fill="#808184" font-family="'Lato-Regular'" font-size="9px">P</text>
			<text transform="matrix(1 0 0 1 289.0285 501.9784)" fill="#808184" font-family="'Lato-Regular'" font-size="9px"> </text>
			<text transform="matrix(1 0 0 1 291.5295 501.9784)" fill="#808184" font-family="'Lato-Regular'" font-size="9px">d</text>
			<text transform="matrix(1 0 0 1 296.5344 501.9784)" fill="#808184" font-family="'Lato-Regular'" font-size="9px">r</text>
			<text transform="matrix(1 0 0 1 299.3791 501.9784)" fill="#808184" font-family="'Lato-Regular'" font-size="9px">o</text>
			<text transform="matrix(1 0 0 1 304.384 501.9784)" fill="#808184" font-family="'Lato-Regular'" font-size="9px">p</text>
			
				<line fill="none" stroke="#F37E4B" stroke-width="2.2286" stroke-miterlimit="10" x1="219.44" y1="498.015" x2="230.943" y2="498.015"/>
		</g>
		<text transform="matrix(1 0 0 1 151.9279 485.5126)" fill="#808184" font-family="'Lato-Regular'" font-size="9px">Years term could have been safely reduced</text>
		
			<line fill="none" stroke="#808184" stroke-width="0.2451" stroke-linejoin="round" stroke-miterlimit="10" x1="63.053" y1="296.558" x2="421.194" y2="296.558"/>
		
			<line fill="none" stroke="#808184" stroke-width="0.2451" stroke-linejoin="round" stroke-miterlimit="10" x1="63.053" y1="335.256" x2="421.194" y2="335.256"/>
		
			<line fill="none" stroke="#808184" stroke-width="0.2451" stroke-linejoin="round" stroke-miterlimit="10" x1="63.053" y1="373.954" x2="421.194" y2="373.954"/>
		
			<line fill="none" stroke="#808184" stroke-width="0.2451" stroke-linejoin="round" stroke-miterlimit="10" x1="63.053" y1="412.652" x2="421.194" y2="412.652"/>
		
			<line fill="none" stroke="#808184" stroke-width="0.2451" stroke-linejoin="round" stroke-miterlimit="10" x1="63.053" y1="451.349" x2="421.194" y2="451.349"/>
		<rect x="347.389" y="412.251" fill="#28377A" width="59.289" height="38.564"/>
		<g>
			<rect x="257.448" y="386.542" fill="#28377A" width="59.289" height="64.272"/>
			<rect x="167.508" y="365.12" fill="#28377A" width="59.289" height="85.696"/>
		</g>
		<rect x="77.57" y="292.278" fill="#28377A" width="59.289" height="158.538"/>
		<text transform="matrix(1 0 0 1 51.6867 454.4354)" fill="#231F20" font-family="'Lato-Regular'" font-size="9px">0 </text>
		<text transform="matrix(1 0 0 1 31.6642 299.6449)" fill="#231F20" font-family="'Lato-Regular'" font-size="9px">16,000</text>
		<text transform="matrix(1 0 0 1 31.6642 338.3431)" fill="#231F20" font-family="'Lato-Regular'" font-size="9px">12,000</text>
		<text transform="matrix(1 0 0 1 36.6682 377.0404)" fill="#231F20" font-family="'Lato-Regular'" font-size="9px">8,000</text>
		<text transform="matrix(1 0 0 1 36.6682 415.7382)" fill="#231F20" font-family="'Lato-Regular'" font-size="9px">4,000</text>
		<text transform="matrix(1 0 0 1 427.0598 454.4354)" fill="#231F20" font-family="'Lato-Regular'" font-size="9px">0% </text>
		<text transform="matrix(1 0 0 1 425.6994 299.6449)" fill="#231F20" font-family="'Lato-Regular'" font-size="9px">16%</text>
		<g>
			<text transform="matrix(1 0 0 1 425.6994 377.0409)" fill="#231F20" font-family="'Lato-Regular'" font-size="9px">8%</text>
		</g>
		<g>
			<text transform="matrix(1 0 0 1 425.6994 338.3427)" fill="#231F20" font-family="'Lato-Regular'" font-size="9px">12%</text>
		</g>
		<g>
			<text transform="matrix(1 0 0 1 425.6994 415.7382)" fill="#231F20" font-family="'Lato-Regular'" font-size="9px">4%</text>
		</g>
		<text transform="matrix(1 0 0 1 83.2014 468.5165)" fill="#231F20" font-family="'Lato-Regular'" font-size="9px">More than 1</text>
		<text transform="matrix(1 0 0 1 166.633 468.5165)" fill="#231F20" font-family="'Lato-Regular'" font-size="9px">1 to less than 2</text>
		<text transform="matrix(1 0 0 1 256.5744 468.5165)" fill="#231F20" font-family="'Lato-Regular'" font-size="9px">2 to less than 3</text>
		<text transform="matrix(1 0 0 1 357.7766 468.5165)" fill="#231F20" font-family="'Lato-Regular'" font-size="9px">3 or more</text>
		<text transform="matrix(1 0 0 1 79.9435 314.3641)" fill="#FFFFFF" font-family="'Lato-Black'" font-size="17.1264px">16,372</text>
		<text transform="matrix(1 0 0 1 176.8771 386.5428)" fill="#FFFFFF" font-family="'Lato-Black'" font-size="17.1264px">8,829</text>
		<text transform="matrix(1 0 0 1 265.342 407.3046)" fill="#FFFFFF" font-family="'Lato-Black'" font-size="17.1264px">6,638</text>
		<text transform="matrix(1 0 0 1 355.1838 431.0546)" fill="#FFFFFF" font-family="'Lato-Black'" font-size="17.1264px">4,032</text>
		<text transform="matrix(1 0 0 1 97.1808 378.723)" fill="#F37E4B" font-family="'Lato-Regular'" font-size="9px">7%</text>
		<rect x="360.823" y="282.108" fill="#FFFFFF" width="36.4" height="20.34"/>
		<text transform="matrix(1 0 0 1 187.2121 350.4535)" fill="#F37E4B" font-family="'Lato-Regular'" font-size="9px">10%</text>
		<text transform="matrix(1 0 0 1 277.6516 328.7152)" fill="#F37E4B" font-family="'Lato-Regular'" font-size="9px">12%</text>
		<text transform="matrix(1 0 0 1 369.7873 299.6449)" fill="#F37E4B" font-family="'Lato-Regular'" font-size="9px">14%</text>
		
			<polyline fill="none" stroke="#F37E4B" stroke-width="2" stroke-linecap="round" stroke-linejoin="round" stroke-miterlimit="10" points="
			107.214,386.542 197.154,357.014 287.093,341.579 377.033,314.363 		"/>
	</g>
</g>
<style type="text/css">
#g-example-print-img rect, #g-example-print-img circle, #g-example-print-img path, #g-example-print-img line, #g-example-print-img polyline { vector-effect: non-scaling-stroke; }
</style>
</svg>

