<?xml version="1.0" encoding="utf-8"?>
<!-- Generator: Adobe Illustrator 23.0.1, SVG Export Plug-In . SVG Version: 6.00 Build 0)  -->
<svg version="1.2" baseProfile="tiny" id="g-example-mobile-img" xmlns="http://www.w3.org/2000/svg" xmlns:xlink="http://www.w3.org/1999/xlink"
	 x="0px" y="0px" viewBox="0 0 366 488.768" xml:space="preserve">
<g>
	
		<line fill="none" stroke="#808184" stroke-width="0.2451" stroke-linejoin="round" stroke-miterlimit="10" x1="57.222" y1="41.622" x2="317.151" y2="41.622"/>
	
		<line fill="none" stroke="#808184" stroke-width="0.2451" stroke-linejoin="round" stroke-miterlimit="10" x1="57.222" y1="80.982" x2="317.151" y2="80.982"/>
	
		<line fill="none" stroke="#808184" stroke-width="0.2451" stroke-linejoin="round" stroke-miterlimit="10" x1="57.222" y1="121.467" x2="317.151" y2="121.467"/>
	<rect x="263.484" y="110.783" fill="#28377A" width="43.03" height="49.481"/>
	<g>
		<rect x="198.729" y="114.156" fill="#28377A" width="43.03" height="46.107"/>
		<rect x="133.52" y="92.79" fill="#28377A" width="43.03" height="67.475"/>
	</g>
	<rect x="68.312" y="59.053" fill="#28377A" width="43.03" height="101.211"/>
	
		<line fill="none" stroke="#808184" stroke-width="0.2451" stroke-linejoin="round" stroke-miterlimit="10" x1="57.222" y1="160.264" x2="317.151" y2="160.264"/>
	
		<polyline fill="none" stroke="#F37E4B" stroke-width="2.2286" stroke-linecap="round" stroke-linejoin="round" stroke-miterlimit="10" points="
		89.374,131.025 154.582,108.534 219.792,100.662 284.999,52.305 	"/>
	<rect x="21.305" y="203.322" fill-rule="evenodd" fill="#28377A" width="5.633" height="6.994"/>
	
		<line fill="none" stroke="#F37E4B" stroke-width="2.2286" stroke-miterlimit="10" x1="20.297" y1="225.73" x2="28.628" y2="225.73"/>
	<rect x="274.578" y="34.851" fill="#FFFFFF" width="26.418" height="14.628"/>
	
		<line fill="none" stroke="#808184" stroke-width="0.2451" stroke-linejoin="round" stroke-miterlimit="10" x1="70.505" y1="290.307" x2="316.568" y2="290.307"/>
	
		<line fill="none" stroke="#808184" stroke-width="0.2451" stroke-linejoin="round" stroke-miterlimit="10" x1="70.505" y1="319.967" x2="316.568" y2="319.967"/>
	
		<line fill="none" stroke="#808184" stroke-width="0.2451" stroke-linejoin="round" stroke-miterlimit="10" x1="70.505" y1="349.628" x2="316.568" y2="349.628"/>
	
		<line fill="none" stroke="#808184" stroke-width="0.2451" stroke-linejoin="round" stroke-miterlimit="10" x1="70.505" y1="379.289" x2="316.568" y2="379.289"/>
	
		<line fill="none" stroke="#808184" stroke-width="0.2451" stroke-linejoin="round" stroke-miterlimit="10" x1="70.505" y1="408.949" x2="316.568" y2="408.949"/>
	<rect x="265.859" y="378.982" fill="#28377A" width="40.735" height="29.558"/>
	<rect x="204.065" y="359.277" fill="#28377A" width="40.735" height="49.263"/>
	<rect x="142.271" y="342.857" fill="#28377A" width="40.735" height="65.683"/>
	<rect x="80.478" y="287.026" fill="#28377A" width="40.735" height="121.514"/>
	<rect x="20.722" y="452.007" fill-rule="evenodd" fill="#28377A" width="5.633" height="6.994"/>
	
		<line fill="none" stroke="#F37E4B" stroke-width="2.2286" stroke-miterlimit="10" x1="19.714" y1="474.415" x2="28.045" y2="474.415"/>
	<rect x="276.266" y="283.536" fill="#FFFFFF" width="25.009" height="14.628"/>
	
		<polyline fill="none" stroke="#F37E4B" stroke-width="2" stroke-linecap="round" stroke-linejoin="round" stroke-miterlimit="10" points="
		100.846,359.277 162.639,336.644 224.433,324.814 286.226,303.953 	"/>
	<g>
		<text transform="matrix(0 -1 1 0 18.9928 -73.3321)" fill="#808184" font-family="'Lato-Regular'" font-size="9px">P</text>
		<text transform="matrix(0 -1 1 0 18.9928 -79.0919)" fill="#808184" font-family="'Lato-Regular'" font-size="9px">e</text>
		<text transform="matrix(0 -1 1 0 18.9928 -84.0973)" fill="#808184" font-family="'Lato-Regular'" font-size="9px">o</text>
		<text transform="matrix(0 -1 1 0 18.9928 -89.1026)" fill="#808184" font-family="'Lato-Regular'" font-size="9px">p</text>
		<text transform="matrix(0 -1 1 0 18.9928 -94.108)" fill="#808184" font-family="'Lato-Regular'" font-size="9px">l</text>
		<text transform="matrix(0 -1 1 0 18.9928 -96.1075)" fill="#808184" font-family="'Lato-Regular'" font-size="9px">e</text>
		<text transform="matrix(0 -1 1 0 18.9928 -101.1129)" fill="#808184" font-family="'Lato-Regular'" font-size="9px"> </text>
		<text transform="matrix(0 -1 1 0 18.9928 -103.6134)" fill="#808184" font-family="'Lato-Regular'" font-size="9px">w</text>
		<text transform="matrix(0 -1 1 0 18.9928 -110.1129)" fill="#808184" font-family="'Lato-Regular'" font-size="9px">i</text>
		<text transform="matrix(0 -1 1 0 18.9928 -112.1124)" fill="#808184" font-family="'Lato-Regular'" font-size="9px">t</text>
		<text transform="matrix(0 -1 1 0 18.9928 -114.6129)" fill="#808184" font-family="'Lato-Regular'" font-size="9px">h</text>
		<text transform="matrix(0 -1 1 0 18.9928 -119.6183)" fill="#808184" font-family="'Lato-Regular'" font-size="9px"> </text>
		<text transform="matrix(0 -1 1 0 18.9928 -122.1188)" fill="#808184" font-family="'Lato-Regular'" font-size="9px">r</text>
		<text transform="matrix(0 -1 1 0 18.9928 -124.9542)" fill="#808184" font-family="'Lato-Regular'" font-size="9px">e</text>
		<text transform="matrix(0 -1 1 0 18.9928 -129.9596)" fill="#808184" font-family="'Lato-Regular'" font-size="9px">d</text>
		<text transform="matrix(0 -1 1 0 18.9928 -134.9649)" fill="#808184" font-family="'Lato-Regular'" font-size="9px">u</text>
		<text transform="matrix(0 -1 1 0 18.9928 -139.9703)" fill="#808184" font-family="'Lato-Regular'" font-size="9px">c</text>
		<text transform="matrix(0 -1 1 0 18.9928 -144.398)" fill="#808184" font-family="'Lato-Regular'" font-size="9px">e</text>
		<text transform="matrix(0 -1 1 0 18.9928 -149.4034)" fill="#808184" font-family="'Lato-Regular'" font-size="9px">d</text>
		<text transform="matrix(0 -1 1 0 18.9928 -154.4088)" fill="#808184" font-family="'Lato-Regular'" font-size="9px"> </text>
		<text transform="matrix(0 -1 1 0 18.9928 -156.9093)" fill="#808184" font-family="'Lato-Regular'" font-size="9px">l</text>
		<text transform="matrix(0 -1 1 0 18.9928 -158.504)" fill="#808184" font-family="'Lato-Regular'" font-size="9px">e</text>
		<text transform="matrix(0 -1 1 0 18.9928 -163.1041)" fill="#808184" font-family="'Lato-Regular'" font-size="9px">n</text>
		<text transform="matrix(0 -1 1 0 18.9928 -167.7047)" fill="#808184" font-family="'Lato-Regular'" font-size="9px">g</text>
		<text transform="matrix(0 -1 1 0 18.9928 -172.3048)" fill="#808184" font-family="'Lato-Regular'" font-size="9px">t</text>
		<text transform="matrix(0 -1 1 0 18.9928 -174.4005)" fill="#808184" font-family="'Lato-Regular'" font-size="9px">h</text>
		<text transform="matrix(0 -1 1 0 18.9928 -179.0006)" fill="#808184" font-family="'Lato-Regular'" font-size="9px"> </text>
		<text transform="matrix(0 -1 1 0 18.9928 -181.0963)" fill="#808184" font-family="'Lato-Regular'" font-size="9px">o</text>
		<text transform="matrix(0 -1 1 0 18.9928 -185.6969)" fill="#808184" font-family="'Lato-Regular'" font-size="9px">f</text>
		<text transform="matrix(0 -1 1 0 18.9928 -187.7921)" fill="#808184" font-family="'Lato-Regular'" font-size="9px"> </text>
		<text transform="matrix(0 -1 1 0 18.9928 -189.8878)" fill="#808184" font-family="'Lato-Regular'" font-size="9px">s</text>
		<text transform="matrix(0 -1 1 0 18.9928 -193.9825)" fill="#808184" font-family="'Lato-Regular'" font-size="9px">u</text>
		<text transform="matrix(0 -1 1 0 18.9928 -198.5831)" fill="#808184" font-family="'Lato-Regular'" font-size="9px">p</text>
		<text transform="matrix(0 -1 1 0 18.9928 -203.1832)" fill="#808184" font-family="'Lato-Regular'" font-size="9px">e</text>
		<text transform="matrix(0 -1 1 0 18.9928 -207.7838)" fill="#808184" font-family="'Lato-Regular'" font-size="9px">r</text>
		<text transform="matrix(0 -1 1 0 18.9928 -210.3756)" fill="#808184" font-family="'Lato-Regular'" font-size="9px">v</text>
		<text transform="matrix(0 -1 1 0 18.9928 -214.4708)" fill="#808184" font-family="'Lato-Regular'" font-size="9px">i</text>
		<text transform="matrix(0 -1 1 0 18.9928 -216.0655)" fill="#808184" font-family="'Lato-Regular'" font-size="9px">s</text>
		<text transform="matrix(0 -1 1 0 18.9928 -220.1602)" fill="#808184" font-family="'Lato-Regular'" font-size="9px">i</text>
		<text transform="matrix(0 -1 1 0 18.9928 -221.755)" fill="#808184" font-family="'Lato-Regular'" font-size="9px">o</text>
		<text transform="matrix(0 -1 1 0 18.9928 -226.3551)" fill="#808184" font-family="'Lato-Regular'" font-size="9px">n</text>
		<text transform="matrix(0 -1 1 0 459.3082 -133.0514)" fill="#808184" font-family="'Lato-Regular'" font-size="9px">%</text>
		<text transform="matrix(0 -1 1 0 459.3082 -141.0538)" fill="#808184" font-family="'Lato-Regular'" font-size="9px"> </text>
		<text transform="matrix(0 -1 1 0 459.3082 -143.5543)" fill="#808184" font-family="'Lato-Regular'" font-size="9px">d</text>
		<text transform="matrix(0 -1 1 0 459.3082 -148.5597)" fill="#808184" font-family="'Lato-Regular'" font-size="9px">r</text>
		<text transform="matrix(0 -1 1 0 459.3082 -151.4039)" fill="#808184" font-family="'Lato-Regular'" font-size="9px">o</text>
		<text transform="matrix(0 -1 1 0 459.3082 -156.4093)" fill="#808184" font-family="'Lato-Regular'" font-size="9px">p</text>
		<text transform="matrix(0 -1 1 0 459.3082 -161.4146)" fill="#808184" font-family="'Lato-Regular'" font-size="9px"> </text>
		<text transform="matrix(0 -1 1 0 459.3082 -163.9151)" fill="#808184" font-family="'Lato-Regular'" font-size="9px">i</text>
		<text transform="matrix(0 -1 1 0 459.3082 -165.9146)" fill="#808184" font-family="'Lato-Regular'" font-size="9px">n</text>
		<text transform="matrix(0 -1 1 0 459.3082 -170.92)" fill="#808184" font-family="'Lato-Regular'" font-size="9px"> </text>
		<text transform="matrix(0 -1 1 0 459.3082 -173.4205)" fill="#808184" font-family="'Lato-Regular'" font-size="9px">A</text>
		<text transform="matrix(0 -1 1 0 459.3082 -179.4234)" fill="#808184" font-family="'Lato-Regular'" font-size="9px">D</text>
		<text transform="matrix(0 -1 1 0 459.3082 -185.9229)" fill="#808184" font-family="'Lato-Regular'" font-size="9px">P</text>
		<g>
			<rect x="12.554" y="-24.416" fill-rule="evenodd" fill="#28377A" width="7.777" height="9.657"/>
			<text transform="matrix(1 0 0 1 25.8756 -14.7584)" fill="#808184" font-family="'Lato-Regular'" font-size="9px">N</text>
			<text transform="matrix(1 0 0 1 32.3756 -14.7584)" fill="#808184" font-family="'Lato-Regular'" font-size="9px">u</text>
			<text transform="matrix(1 0 0 1 37.3805 -14.7584)" fill="#808184" font-family="'Lato-Regular'" font-size="9px">m</text>
			<text transform="matrix(1 0 0 1 44.8776 -14.7584)" fill="#808184" font-family="'Lato-Regular'" font-size="9px">b</text>
			<text transform="matrix(1 0 0 1 49.8834 -14.7584)" fill="#808184" font-family="'Lato-Regular'" font-size="9px">e</text>
			<text transform="matrix(1 0 0 1 54.8883 -14.7584)" fill="#808184" font-family="'Lato-Regular'" font-size="9px">r</text>
			<text transform="matrix(1 0 0 1 57.8854 -14.7584)" fill="#808184" font-family="'Lato-Regular'" font-size="9px"> </text>
			<text transform="matrix(1 0 0 1 60.3854 -14.7584)" fill="#808184" font-family="'Lato-Regular'" font-size="9px">o</text>
			<text transform="matrix(1 0 0 1 65.3912 -14.7584)" fill="#808184" font-family="'Lato-Regular'" font-size="9px">f</text>
			<text transform="matrix(1 0 0 1 67.8912 -14.7584)" fill="#808184" font-family="'Lato-Regular'" font-size="9px"> </text>
			<text transform="matrix(1 0 0 1 70.3922 -14.7584)" fill="#808184" font-family="'Lato-Regular'" font-size="9px">p</text>
			<text transform="matrix(1 0 0 1 75.3971 -14.7584)" fill="#808184" font-family="'Lato-Regular'" font-size="9px">e</text>
			<text transform="matrix(1 0 0 1 80.403 -14.7584)" fill="#808184" font-family="'Lato-Regular'" font-size="9px">o</text>
			<text transform="matrix(1 0 0 1 85.4088 -14.7584)" fill="#808184" font-family="'Lato-Regular'" font-size="9px">p</text>
			<text transform="matrix(1 0 0 1 90.4137 -14.7584)" fill="#808184" font-family="'Lato-Regular'" font-size="9px">l</text>
			<text transform="matrix(1 0 0 1 92.4127 -14.7584)" fill="#808184" font-family="'Lato-Regular'" font-size="9px">e</text>
			<text transform="matrix(1 0 0 1 97.4186 -14.7584)" fill="#808184" font-family="'Lato-Regular'" font-size="9px"> </text>
			<text transform="matrix(1 0 0 1 99.9186 -14.7584)" fill="#808184" font-family="'Lato-Regular'" font-size="9px">w</text>
			<text transform="matrix(1 0 0 1 106.4186 -14.7584)" fill="#808184" font-family="'Lato-Regular'" font-size="9px">i</text>
			<text transform="matrix(1 0 0 1 108.4186 -14.7584)" fill="#808184" font-family="'Lato-Regular'" font-size="9px">t</text>
			<text transform="matrix(1 0 0 1 110.9186 -14.7584)" fill="#808184" font-family="'Lato-Regular'" font-size="9px">h</text>
			<text transform="matrix(1 0 0 1 115.9244 -14.7584)" fill="#808184" font-family="'Lato-Regular'" font-size="9px"> </text>
			<text transform="matrix(1 0 0 1 118.4244 -14.7584)" fill="#808184" font-family="'Lato-Regular'" font-size="9px">r</text>
			<text transform="matrix(1 0 0 1 121.2682 -14.7584)" fill="#808184" font-family="'Lato-Regular'" font-size="9px">e</text>
			<text transform="matrix(1 0 0 1 126.274 -14.7584)" fill="#808184" font-family="'Lato-Regular'" font-size="9px">d</text>
			<text transform="matrix(1 0 0 1 131.2789 -14.7584)" fill="#808184" font-family="'Lato-Regular'" font-size="9px">u</text>
			<text transform="matrix(1 0 0 1 136.2848 -14.7584)" fill="#808184" font-family="'Lato-Regular'" font-size="9px">c</text>
			<text transform="matrix(1 0 0 1 140.7037 -14.7584)" fill="#808184" font-family="'Lato-Regular'" font-size="9px">e</text>
			<text transform="matrix(1 0 0 1 145.7086 -14.7584)" fill="#808184" font-family="'Lato-Regular'" font-size="9px">d</text>
			<text transform="matrix(1 0 0 1 150.7145 -14.7584)" fill="#808184" font-family="'Lato-Regular'" font-size="9px"> </text>
			<text transform="matrix(1 0 0 1 153.2145 -14.7584)" fill="#808184" font-family="'Lato-Regular'" font-size="9px">p</text>
			<text transform="matrix(1 0 0 1 158.2203 -14.7584)" fill="#808184" font-family="'Lato-Regular'" font-size="9px">r</text>
			<text transform="matrix(1 0 0 1 161.0641 -14.7584)" fill="#808184" font-family="'Lato-Regular'" font-size="9px">o</text>
			<text transform="matrix(1 0 0 1 166.0699 -14.7584)" fill="#808184" font-family="'Lato-Regular'" font-size="9px">b</text>
			<text transform="matrix(1 0 0 1 171.0748 -14.7584)" fill="#808184" font-family="'Lato-Regular'" font-size="9px">a</text>
			<text transform="matrix(1 0 0 1 176.0807 -14.7584)" fill="#808184" font-family="'Lato-Regular'" font-size="9px">t</text>
			<text transform="matrix(1 0 0 1 178.5807 -14.7584)" fill="#808184" font-family="'Lato-Regular'" font-size="9px">i</text>
			<text transform="matrix(1 0 0 1 180.5807 -14.7584)" fill="#808184" font-family="'Lato-Regular'" font-size="9px">o</text>
			<text transform="matrix(1 0 0 1 185.5856 -14.7584)" fill="#808184" font-family="'Lato-Regular'" font-size="9px">n</text>
		</g>
		<g>
			<text transform="matrix(1 0 0 1 234.1539 -15.6676)" fill="#808184" font-family="'Lato-Regular'" font-size="9px">S</text>
			<text transform="matrix(1 0 0 1 240.1569 -15.6676)" fill="#808184" font-family="'Lato-Regular'" font-size="9px">h</text>
			<text transform="matrix(1 0 0 1 245.1627 -15.6676)" fill="#808184" font-family="'Lato-Regular'" font-size="9px">a</text>
			<text transform="matrix(1 0 0 1 250.1676 -15.6676)" fill="#808184" font-family="'Lato-Regular'" font-size="9px">r</text>
			<text transform="matrix(1 0 0 1 253.0114 -15.6676)" fill="#808184" font-family="'Lato-Regular'" font-size="9px">e</text>
			<text transform="matrix(1 0 0 1 258.0172 -15.6676)" fill="#808184" font-family="'Lato-Regular'" font-size="9px"> </text>
			<text transform="matrix(1 0 0 1 260.5172 -15.6676)" fill="#808184" font-family="'Lato-Regular'" font-size="9px">o</text>
			<text transform="matrix(1 0 0 1 265.5231 -15.6676)" fill="#808184" font-family="'Lato-Regular'" font-size="9px">f</text>
			<text transform="matrix(1 0 0 1 268.0231 -15.6676)" fill="#808184" font-family="'Lato-Regular'" font-size="9px"> </text>
			<text transform="matrix(1 0 0 1 270.524 -15.6676)" fill="#808184" font-family="'Lato-Regular'" font-size="9px">A</text>
			<text transform="matrix(1 0 0 1 276.527 -15.6676)" fill="#808184" font-family="'Lato-Regular'" font-size="9px">D</text>
			<text transform="matrix(1 0 0 1 283.026 -15.6676)" fill="#808184" font-family="'Lato-Regular'" font-size="9px">P</text>
			<text transform="matrix(1 0 0 1 289.0289 -15.6676)" fill="#808184" font-family="'Lato-Regular'" font-size="9px"> </text>
			<text transform="matrix(1 0 0 1 291.5299 -15.6676)" fill="#808184" font-family="'Lato-Regular'" font-size="9px">d</text>
			<text transform="matrix(1 0 0 1 296.5348 -15.6676)" fill="#808184" font-family="'Lato-Regular'" font-size="9px">r</text>
			<text transform="matrix(1 0 0 1 299.3795 -15.6676)" fill="#808184" font-family="'Lato-Regular'" font-size="9px">o</text>
			<text transform="matrix(1 0 0 1 304.3844 -15.6676)" fill="#808184" font-family="'Lato-Regular'" font-size="9px">p</text>
			
				<line fill="none" stroke="#F37E4B" stroke-width="2.2286" stroke-miterlimit="10" x1="219.441" y1="-19.631" x2="230.943" y2="-19.631"/>
		</g>
		<text transform="matrix(1 0 0 1 151.9283 -32.1334)" fill="#808184" font-family="'Lato-Regular'" font-size="9px">Years term could have been safely reduced</text>
		
			<line fill="none" stroke="#808184" stroke-width="0.2451" stroke-linejoin="round" stroke-miterlimit="10" x1="63.054" y1="-221.088" x2="421.195" y2="-221.088"/>
		
			<line fill="none" stroke="#808184" stroke-width="0.2451" stroke-linejoin="round" stroke-miterlimit="10" x1="63.054" y1="-182.39" x2="421.195" y2="-182.39"/>
		
			<line fill="none" stroke="#808184" stroke-width="0.2451" stroke-linejoin="round" stroke-miterlimit="10" x1="63.054" y1="-143.692" x2="421.195" y2="-143.692"/>
		
			<line fill="none" stroke="#808184" stroke-width="0.2451" stroke-linejoin="round" stroke-miterlimit="10" x1="63.054" y1="-104.994" x2="421.195" y2="-104.994"/>
		
			<line fill="none" stroke="#808184" stroke-width="0.2451" stroke-linejoin="round" stroke-miterlimit="10" x1="63.054" y1="-66.297" x2="421.195" y2="-66.297"/>
		<rect x="347.389" y="-105.395" fill="#28377A" width="59.289" height="38.564"/>
		<g>
			<rect x="257.448" y="-131.104" fill="#28377A" width="59.289" height="64.272"/>
			<rect x="167.509" y="-152.526" fill="#28377A" width="59.289" height="85.696"/>
		</g>
		<rect x="77.57" y="-225.368" fill="#28377A" width="59.289" height="158.538"/>
		<text transform="matrix(1 0 0 1 51.6871 -63.2105)" fill="#231F20" font-family="'Lato-Regular'" font-size="9px">0 </text>
		<text transform="matrix(1 0 0 1 31.6647 -218.0011)" fill="#231F20" font-family="'Lato-Regular'" font-size="9px">16,000</text>
		<text transform="matrix(1 0 0 1 31.6647 -179.3028)" fill="#231F20" font-family="'Lato-Regular'" font-size="9px">12,000</text>
		<text transform="matrix(1 0 0 1 36.6686 -140.6056)" fill="#231F20" font-family="'Lato-Regular'" font-size="9px">8,000</text>
		<text transform="matrix(1 0 0 1 36.6686 -101.9078)" fill="#231F20" font-family="'Lato-Regular'" font-size="9px">4,000</text>
		<text transform="matrix(1 0 0 1 427.0602 -63.2105)" fill="#231F20" font-family="'Lato-Regular'" font-size="9px">0% </text>
		<text transform="matrix(1 0 0 1 425.6998 -218.0011)" fill="#231F20" font-family="'Lato-Regular'" font-size="9px">16%</text>
		<g>
			<text transform="matrix(1 0 0 1 425.6998 -140.6051)" fill="#231F20" font-family="'Lato-Regular'" font-size="9px">8%</text>
		</g>
		<g>
			<text transform="matrix(1 0 0 1 425.6998 -179.3033)" fill="#231F20" font-family="'Lato-Regular'" font-size="9px">12%</text>
		</g>
		<g>
			<text transform="matrix(1 0 0 1 425.6998 -101.9078)" fill="#231F20" font-family="'Lato-Regular'" font-size="9px">4%</text>
		</g>
		<text transform="matrix(1 0 0 1 83.2018 -49.1295)" fill="#231F20" font-family="'Lato-Regular'" font-size="9px">More than 1</text>
		<text transform="matrix(1 0 0 1 166.6334 -49.1295)" fill="#231F20" font-family="'Lato-Regular'" font-size="9px">1 to less than 2</text>
		<text transform="matrix(1 0 0 1 256.5748 -49.1295)" fill="#231F20" font-family="'Lato-Regular'" font-size="9px">2 to less than 3</text>
		<text transform="matrix(1 0 0 1 357.777 -49.1295)" fill="#231F20" font-family="'Lato-Regular'" font-size="9px">3 or more</text>
		<text transform="matrix(1 0 0 1 79.944 -203.2818)" fill="#FFFFFF" font-family="'Lato-Black'" font-size="17.1264px">16,372</text>
		<text transform="matrix(1 0 0 1 176.8776 -131.1031)" fill="#FFFFFF" font-family="'Lato-Black'" font-size="17.1264px">8,829</text>
		<text transform="matrix(1 0 0 1 265.3424 -110.3414)" fill="#FFFFFF" font-family="'Lato-Black'" font-size="17.1264px">6,638</text>
		<text transform="matrix(1 0 0 1 355.1842 -86.5914)" fill="#FFFFFF" font-family="'Lato-Black'" font-size="17.1264px">4,032</text>
		<text transform="matrix(1 0 0 1 97.1813 -138.9229)" fill="#F37E4B" font-family="'Lato-Regular'" font-size="9px">7%</text>
		<rect x="360.823" y="-235.538" fill="#FFFFFF" width="36.4" height="20.34"/>
		<text transform="matrix(1 0 0 1 187.2125 -167.1925)" fill="#F37E4B" font-family="'Lato-Regular'" font-size="9px">10%</text>
		<text transform="matrix(1 0 0 1 277.652 -188.9308)" fill="#F37E4B" font-family="'Lato-Regular'" font-size="9px">12%</text>
		<text transform="matrix(1 0 0 1 369.7877 -218.0011)" fill="#F37E4B" font-family="'Lato-Regular'" font-size="9px">14%</text>
		
			<polyline fill="none" stroke="#F37E4B" stroke-width="2" stroke-linecap="round" stroke-linejoin="round" stroke-miterlimit="10" points="
			107.214,-131.104 197.154,-160.632 287.094,-176.067 377.034,-203.283 		"/>
	</g>
	<text transform="matrix(1 0 0 1 73.1457 78.4037)" fill="#FFFFFF" font-family="'Lato-Black'" font-size="12.5178px">5</text>
	<text transform="matrix(1 0 0 1 79.8693 78.4037)" fill="#FFFFFF" font-family="'Lato-Black'" font-size="12.5178px">,</text>
	<text transform="matrix(1 0 0 1 83.1096 78.4037)" fill="#FFFFFF" font-family="'Lato-Black'" font-size="12.5178px">1</text>
	<text transform="matrix(1 0 0 1 89.8332 78.4037)" fill="#FFFFFF" font-family="'Lato-Black'" font-size="12.5178px">0</text>
	<text transform="matrix(1 0 0 1 96.5578 78.4037)" fill="#FFFFFF" font-family="'Lato-Black'" font-size="12.5178px">6</text>
	<text transform="matrix(1 0 0 1 140.0412 128.7797)" fill="#FFFFFF" font-family="'Lato-Black'" font-size="12.5178px">3</text>
	<text transform="matrix(1 0 0 1 146.7648 128.7797)" fill="#FFFFFF" font-family="'Lato-Black'" font-size="12.5178px">,</text>
	<text transform="matrix(1 0 0 1 150.0051 128.7797)" fill="#FFFFFF" font-family="'Lato-Black'" font-size="12.5178px">4</text>
	<text transform="matrix(1 0 0 1 156.7287 128.7797)" fill="#FFFFFF" font-family="'Lato-Black'" font-size="12.5178px">0</text>
	<text transform="matrix(1 0 0 1 163.4533 128.7797)" fill="#FFFFFF" font-family="'Lato-Black'" font-size="12.5178px">3</text>
	<text transform="matrix(1 0 0 1 204.2453 133.2719)" fill="#FFFFFF" font-family="'Lato-Black'" font-size="12.5178px">2</text>
	<text transform="matrix(1 0 0 1 210.9689 133.2719)" fill="#FFFFFF" font-family="'Lato-Black'" font-size="12.5178px">,</text>
	<text transform="matrix(1 0 0 1 214.2092 133.2719)" fill="#FFFFFF" font-family="'Lato-Black'" font-size="12.5178px">3</text>
	<text transform="matrix(1 0 0 1 220.9328 133.2719)" fill="#FFFFFF" font-family="'Lato-Black'" font-size="12.5178px">6</text>
	<text transform="matrix(1 0 0 1 227.6574 133.2719)" fill="#FFFFFF" font-family="'Lato-Black'" font-size="12.5178px">7</text>
	<text transform="matrix(1 0 0 1 269.4504 130.474)" fill="#FFFFFF" font-family="'Lato-Black'" font-size="12.5178px">2</text>
	<text transform="matrix(1 0 0 1 276.174 130.474)" fill="#FFFFFF" font-family="'Lato-Black'" font-size="12.5178px">,</text>
	<text transform="matrix(1 0 0 1 279.4142 130.474)" fill="#FFFFFF" font-family="'Lato-Black'" font-size="12.5178px">4</text>
	<text transform="matrix(1 0 0 1 286.1379 130.474)" fill="#FFFFFF" font-family="'Lato-Black'" font-size="12.5178px">9</text>
	<text transform="matrix(1 0 0 1 292.8625 130.474)" fill="#FFFFFF" font-family="'Lato-Black'" font-size="12.5178px">2</text>
	<text transform="matrix(0.9467 0 0 1 82.3244 304.1643)" fill="#FFFFFF" font-family="'Lato-Black'" font-size="12.5178px">16,372</text>
	<text transform="matrix(1 0 0 1 147.6105 359.6576)" fill="#FFFFFF" font-family="'Lato-Black'" font-size="12.5178px">8,829</text>
	<text transform="matrix(1 0 0 1 208.3898 374.5893)" fill="#FFFFFF" font-family="'Lato-Black'" font-size="12.5178px">6,638</text>
	<text transform="matrix(1 0 0 1 270.1174 395.1361)" fill="#FFFFFF" font-family="'Lato-Black'" font-size="12.5178px">4,032</text>
</g>
<style type="text/css">
#g-example-mobile-img rect, #g-example-mobile-img circle, #g-example-mobile-img path, #g-example-mobile-img line, #g-example-mobile-img polyline { vector-effect: non-scaling-stroke; }
</style>
</svg>

